<?xml version="1.0" encoding="utf-8" ?>
<svg xmlns="http://www.w3.org/2000/svg" xmlns:xlink="http://www.w3.org/1999/xlink" width="1024" height="1024">
	<path fill="#050505" d="M0 0L1024 0L1024 1024L0 1024L0 0Z"/>
	<path fill="#5B5B5B" d="M844.917 141.541C849.234 146.016 852.782 151.094 856.879 155.746C845.33 167.05 686.2 327.356 686.087 327.868C678.918 328.622 670.939 327.899 663.676 327.942L796.902 190.407L827.203 158.932C832.702 153.226 838.344 146.028 844.917 141.541Z"/>
	<path fill="#6E6E6E" d="M719.699 921.069L788.156 921.297C800.192 921.273 812.496 920.714 824.5 921.361C824.411 933.219 823.373 947.859 824.605 959.459C802.479 973.177 774.249 981.228 748.449 983.174C738.949 983.891 729.315 983.555 719.791 983.493Q719.993 952.281 719.699 921.069Z"/>
	<path fill="#4F494D" d="M199.462 923.064C238.896 923.762 278.552 921.917 317.938 922.616Q317.677 953.099 317.975 983.58C280.109 983.716 254.127 983.428 218.663 967.003C212.214 964.016 205.185 961.061 199.331 957.004C200 945.782 199.503 934.31 199.462 923.064Z"/>
	<path fill="#6E6E6E" d="M700.506 841.053C716.552 841.922 732.752 841.42 748.816 841.264C757.599 841.179 766.67 840.493 775.36 841.999C782.797 843.287 790.543 846.159 796.756 850.493C811.022 860.64 820.529 872.552 823.508 890.129Q823.989 893.08 824.254 896.058C825.03 904.375 824.585 913.012 824.5 921.361C812.496 920.714 800.192 921.273 788.156 921.297L719.699 921.069C719.695 913.89 718.989 906.746 718.389 899.598Q718.087 895.752 717.576 891.929Q717.065 888.106 716.346 884.316Q715.627 880.526 714.703 876.781Q713.779 873.036 712.652 869.347Q711.525 865.658 710.199 862.035Q708.873 858.413 707.351 854.868Q705.829 851.324 704.117 847.867Q702.404 844.411 700.506 841.053Z"/>
	<path fill="#4F494D" d="M824.254 896.058C825.03 904.375 824.585 913.012 824.5 921.361C812.496 920.714 800.192 921.273 788.156 921.297L719.699 921.069C719.695 913.89 718.989 906.746 718.389 899.598L802.217 899.337C806.097 899.317 820.429 899.95 822.855 899.178C823.283 899.041 823.599 898.674 823.971 898.423L824.254 896.058Z"/>
	<path fill="#676767" d="M668.97 803.423C677.775 810.981 685.801 820.04 692.581 829.478C695.302 833.266 697.724 837.323 700.506 841.053Q702.404 844.411 704.117 847.867Q705.829 851.324 707.351 854.868Q708.873 858.413 710.199 862.035Q711.525 865.658 712.652 869.347Q713.779 873.036 714.703 876.781Q715.627 880.526 716.346 884.316Q717.065 888.106 717.576 891.929Q718.087 895.752 718.389 899.598C718.989 906.746 719.695 913.89 719.699 921.069Q719.993 952.281 719.791 983.493L585.113 983.595C573.245 983.936 561.273 983.612 549.395 983.606C549.397 965.452 548.873 947.192 549.326 929.052C551.452 929.792 554.697 930.4 556.867 929.548C558.838 928.774 559.613 927.342 560.423 925.505C560.84 924.557 561.061 923.85 561.844 923.143C562.158 924.135 562.115 923.792 562.192 924.619C562.308 925.873 562.311 926.968 563.305 927.909C564.587 929.122 566.395 929.638 568.131 929.412C574.654 928.563 581.509 913.126 585.278 907.875C597.326 890.62 608.383 872.608 620.288 855.231C622.949 851.346 626.231 844.932 629.866 842.062C630.39 842.937 630.235 842.863 631.253 843.392C633.114 842.761 634.411 840.875 635.688 839.444C646.99 827.614 657.831 815.401 668.97 803.423Z"/>
	<path fill="#373535" d="M585.278 907.875C585.915 916.794 585.148 926.036 585.066 934.987C584.916 951.186 585.054 967.395 585.113 983.595C573.245 983.936 561.273 983.612 549.395 983.606C549.397 965.452 548.873 947.192 549.326 929.052C551.452 929.792 554.697 930.4 556.867 929.548C558.838 928.774 559.613 927.342 560.423 925.505C560.84 924.557 561.061 923.85 561.844 923.143C562.158 924.135 562.115 923.792 562.192 924.619C562.308 925.873 562.311 926.968 563.305 927.909C564.587 929.122 566.395 929.638 568.131 929.412C574.654 928.563 581.509 913.126 585.278 907.875Z"/>
	<path fill="#373535" d="M234.555 653.704C231.86 687.72 230.247 721.821 227.762 755.854Q225.282 787.359 223.778 818.926C223.178 830.436 222.215 842.103 222.532 853.631C208.546 867 200.463 884.311 199.282 903.659C198.521 910.042 199.3 916.653 199.462 923.064C199.503 934.31 200 945.782 199.331 957.004Q193.167 953.454 187.245 949.514Q181.324 945.574 175.669 941.259Q170.014 936.944 164.65 932.273Q159.285 927.603 154.234 922.595C117.246 885.72 92.0834 837.37 86.9211 785.012C85.2533 768.097 86.2205 750.716 86.1529 733.724L85.8633 656.13C100.72 656.827 115.722 656.444 130.599 656.446L205.617 656.443C209.288 656.44 231.004 657.046 232.79 656.457C234.173 656.001 234.178 654.917 234.555 653.704Z"/>
	<path fill="#373535" d="M788.859 656.551Q837.722 656.634 886.583 656.211C903.254 656.13 920.375 655.284 936.992 656.304L936.981 720.946C936.993 739.256 937.569 757.721 936.089 775.984C931.634 830.99 910.891 883.887 871.494 923.258Q866.288 928.56 860.73 933.493Q855.173 938.426 849.291 942.967Q843.41 947.508 837.231 951.636Q831.052 955.764 824.605 959.459C823.373 947.859 824.411 933.219 824.5 921.361C824.585 913.012 825.03 904.375 824.254 896.058Q823.989 893.08 823.508 890.129C820.529 872.552 811.022 860.64 796.756 850.493C797.336 844.263 796.795 837.862 796.559 831.619C796.08 818.959 795.293 806.317 794.733 793.661L790.508 694.361C790.003 681.756 789.134 669.165 788.859 656.551Z"/>
	<path fill="#262626" d="M85.624 583.982C86.7334 567.169 85.738 549.818 85.673 532.941L85.5831 426.312L85.4776 378.04C85.459 368.172 85.1546 358.199 85.7768 348.352C87.9761 313.542 97.5955 278.499 110.949 246.401C115.93 234.428 120.994 221.856 128.047 210.941L127.913 314.352C127.895 334.888 126.905 355.906 128.831 376.35C133.617 427.145 158.13 473.889 193.848 509.752C207.089 523.048 224.477 538.099 241.134 546.587C240.397 558.908 239.736 571.277 238.662 583.571Q237.37 607.175 235.788 630.761C235.316 638.213 234.166 646.266 234.555 653.704C234.178 654.917 234.173 656.001 232.79 656.457C231.004 657.046 209.288 656.44 205.617 656.443L130.599 656.446C115.722 656.444 100.72 656.827 85.8633 656.13C86.0645 632.081 85.3719 608.029 85.624 583.982Z"/>
	<path fill="#676767" d="M85.624 583.982C104.184 583.154 123.988 583.972 142.676 583.964L238.662 583.571Q237.37 607.175 235.788 630.761C235.316 638.213 234.166 646.266 234.555 653.704C234.178 654.917 234.173 656.001 232.79 656.457C231.004 657.046 209.288 656.44 205.617 656.443L130.599 656.446C115.722 656.444 100.72 656.827 85.8633 656.13C86.0645 632.081 85.3719 608.029 85.624 583.982Z"/>
	<path fill="#262626" d="M896.39 213.24C918.576 249.612 933.218 303.618 936.179 345.898C937.065 358.545 936.547 371.524 936.577 384.206L936.655 459.859Q937.179 505.856 937.121 551.855C937.078 562.586 937.296 573.395 936.943 584.116L936.992 656.304C920.375 655.284 903.254 656.13 886.583 656.211Q837.722 656.634 788.859 656.551C787.883 646.32 787.947 635.781 787.528 625.503C786.967 611.738 786.07 597.988 785.579 584.221C785.471 571.338 785.141 557.726 783.485 544.968C787.6 541.419 792.272 538.333 796.587 535.01Q807.125 526.917 816.944 517.965C845.569 492.053 869.346 457.925 881.411 421.11C884.541 411.561 886.623 401.938 888.5 392.076C891.712 380.524 894.575 368.904 895.843 356.957C897.19 344.263 896.491 331.076 896.436 318.299Q895.977 282.873 896.111 247.445C896.18 236.289 894.929 224.25 896.39 213.24Z"/>
	<path fill="#676767" d="M785.579 584.221L885.638 584.087C902.721 584.08 919.868 583.724 936.943 584.116L936.992 656.304C920.375 655.284 903.254 656.13 886.583 656.211Q837.722 656.634 788.859 656.551C787.883 646.32 787.947 635.781 787.528 625.503C786.967 611.738 786.07 597.988 785.579 584.221Z"/>
	<path fill="#1E1E1E" d="M887.241 250.004C886.365 239.341 887.308 228.092 887.404 217.352C887.457 211.34 886.643 204.335 887.702 198.463L888.229 198.438L888.866 199.943C891.515 204.145 894.38 208.684 896.39 213.24C894.929 224.25 896.18 236.289 896.111 247.445Q895.977 282.874 896.436 318.299C896.491 331.076 897.19 344.263 895.843 356.957C894.575 368.904 891.712 380.524 888.5 392.076C886.623 401.938 884.541 411.561 881.411 421.11C869.346 457.925 845.569 492.053 816.944 517.965Q807.125 526.917 796.587 535.01C792.272 538.333 787.6 541.419 783.485 544.968C785.141 557.726 785.471 571.338 785.579 584.221C786.07 597.988 786.967 611.738 787.528 625.503C787.947 635.781 787.883 646.32 788.859 656.551C789.134 669.165 790.003 681.756 790.508 694.361L794.733 793.661C795.293 806.317 796.08 818.959 796.559 831.619C796.795 837.862 797.336 844.263 796.756 850.493C790.543 846.159 782.797 843.287 775.36 841.999C766.67 840.493 757.599 841.179 748.816 841.264C732.752 841.42 716.552 841.922 700.506 841.053C697.724 837.323 695.302 833.266 692.581 829.478C685.801 820.04 677.775 810.981 668.97 803.423C673.762 798.502 678.132 793.112 682.746 788.017Q697.437 772.094 711.888 755.952L732.83 732.842C739.438 725.618 747.789 718.432 752.175 709.607C756.44 701.024 758.444 690.892 757.667 681.334C756.92 672.153 753.697 662.762 751.324 653.86Q744.819 629.197 737.776 604.682C727.959 569.276 719.624 533.213 708.028 498.341C704.118 486.581 700.163 474.776 694.655 463.65C684.74 443.624 662.811 414.395 642.644 404.311C653.012 388.143 662.105 370.792 671.533 354.042C675.486 347.02 679.195 339.393 683.865 332.841C684.592 331.822 685.078 331.263 686.272 330.772C686.58 330.844 686.887 330.921 687.196 330.988C692.002 332.021 698.615 331.147 703.605 331.065C729.13 330.646 747.606 331.964 763.427 354.897Q765.753 358.285 767.714 361.896Q769.674 365.507 771.249 369.302C776.634 364.994 781.489 359.305 786.229 354.288C793.5 346.593 800.757 338.87 808.142 331.284C834.512 304.197 861.303 277.493 887.241 250.004Z"/>
	<path d="M888.866 199.943C891.515 204.145 894.38 208.684 896.39 213.24C894.929 224.25 896.18 236.289 896.111 247.445Q895.977 282.874 896.436 318.299C896.491 331.076 897.19 344.263 895.843 356.957C894.575 368.904 891.712 380.524 888.5 392.076C888.484 385.516 888.876 378.957 888.901 372.391L888.837 275.571Q888.451 249.765 888.479 223.956C888.483 216.119 887.881 207.696 888.866 199.943Z"/>
	<path fill="#5B5B5B" d="M887.241 250.004C888.245 275.932 887.449 302.174 887.45 328.143C887.451 349.089 888.773 373.322 886.257 393.909C881.534 432.566 857.698 472.681 831.521 500.944Q817.458 516.023 801.519 529.104C795.638 533.84 789.407 538.139 783.535 542.869Q780.443 483.96 776.552 425.099L774.864 399.091C774.261 389.07 774.148 378.988 771.249 369.302C776.634 364.994 781.489 359.305 786.229 354.288C793.5 346.593 800.757 338.87 808.142 331.284C834.512 304.197 861.303 277.493 887.241 250.004Z"/>
	<path d="M129.34 208.5C129.359 208.636 129.38 208.771 129.397 208.907C130.174 215.019 129.603 221.71 129.588 227.911L129.49 265.807L129.342 331.77C129.322 346.105 128.761 360.719 130.193 374.991Q130.495 377.775 130.867 380.551Q131.239 383.326 131.68 386.092Q132.121 388.857 132.632 391.61Q133.143 394.364 133.722 397.104Q134.302 399.843 134.95 402.568Q135.598 405.292 136.315 407.999Q137.031 410.707 137.815 413.395Q138.599 416.083 139.451 418.751Q140.302 421.419 141.22 424.065Q142.138 426.71 143.122 429.332Q144.106 431.954 145.156 434.55Q146.205 437.146 147.32 439.715Q148.434 442.284 149.613 444.825Q150.792 447.365 152.034 449.875Q153.276 452.385 154.58 454.863Q155.885 457.341 157.251 459.785Q158.617 462.23 160.045 464.639Q161.472 467.048 162.959 469.421Q164.447 471.794 165.993 474.129Q167.539 476.463 169.144 478.758Q170.749 481.054 172.41 483.308Q174.072 485.562 175.789 487.774Q177.507 489.985 179.28 492.153Q181.052 494.321 182.879 496.444Q184.705 498.567 186.585 500.643Q188.464 502.719 190.395 504.748Q192.325 506.776 194.306 508.755Q196.287 510.735 198.317 512.664Q200.347 514.593 202.425 516.47Q204.503 518.347 206.628 520.172Q208.752 521.997 210.921 523.768Q213.091 525.538 215.304 527.254C223.647 533.82 233.479 539.04 241.425 545.91C241.759 536.769 242.71 527.608 243.515 518.495C243.945 513.634 244.063 508.436 244.927 503.641C245.303 492.354 246.718 480.978 247.641 469.714Q249.867 440.612 252.43 411.538C253.58 398.822 253.928 379.095 257.117 367.524Q257.558 365.967 258.097 364.442Q258.636 362.916 259.272 361.428Q259.907 359.94 260.637 358.496Q261.366 357.052 262.187 355.657Q263.007 354.263 263.914 352.923Q264.822 351.584 265.814 350.305Q266.805 349.027 267.876 347.814Q268.948 346.602 270.094 345.46C287.54 327.931 306.789 330.569 329.463 330.544L371.583 330.499L371.312 297.614C376.3 297.972 381.509 298.207 386.507 297.85C393.954 297.277 401.752 297.702 409.24 297.701L452.632 297.766C456.24 302.956 459.948 307.767 464.556 312.115C466.983 314.405 469.844 316.482 472.085 318.924C472.055 322.766 471.935 326.634 472.146 330.47C472.132 335.832 473.065 355.211 472.141 359.242C464.903 358.544 457.544 358.723 451.663 363.675C447.635 367.066 445.37 372.014 445.126 377.249C445.036 379.183 445.344 381.042 445.767 382.92C443.681 383.613 441.593 384.273 439.574 385.148C397.76 395.976 360.937 417.837 338.575 456.028C327.944 474.183 323.61 494.978 317.626 514.934Q303.624 561.24 290.649 607.843L277.401 653.003C275.017 661.184 272.18 669.435 270.664 677.823C269.514 684.192 269.581 691.329 271.202 697.613C272.776 703.72 275.867 709.678 279.657 714.697C288.78 726.78 300.528 737.133 310.965 748.099Q339.345 778.434 368.259 808.261C362.168 816.7 354.842 824.54 348.22 832.58C345.683 835.661 342.794 840.619 339.679 842.979C325.387 861.819 317.818 881.172 317.956 905.049L317.938 922.616C278.552 921.917 238.896 923.762 199.462 923.064C199.3 916.653 198.521 910.042 199.282 903.659C200.463 884.311 208.546 867 222.532 853.631C222.215 842.103 223.178 830.436 223.778 818.926Q225.282 787.359 227.762 755.854C230.247 721.821 231.86 687.72 234.555 653.704C234.166 646.266 235.316 638.213 235.788 630.761Q237.37 607.175 238.662 583.571C239.736 571.277 240.397 558.908 241.134 546.587C224.477 538.099 207.089 523.048 193.848 509.752C158.13 473.889 133.617 427.145 128.831 376.35C126.905 355.906 127.895 334.888 127.913 314.352L128.047 210.941L129.34 208.5Z"/>
	<path fill="#5B5B5B" d="M452.632 297.766C456.24 302.956 459.948 307.767 464.556 312.115C466.983 314.405 469.844 316.482 472.085 318.924C472.055 322.766 471.935 326.634 472.146 330.47L386.504 330.475L386.507 297.85C393.954 297.277 401.752 297.702 409.24 297.701L452.632 297.766Z"/>
	<path fill="#4F494D" d="M222.532 853.631C228.298 849.242 234.646 845.939 241.765 844.381C254.162 841.667 268.364 843.055 281.02 843.063L339.679 842.979C325.387 861.819 317.818 881.172 317.956 905.049L317.938 922.616C278.552 921.917 238.896 923.762 199.462 923.064C199.3 916.653 198.521 910.042 199.282 903.659C200.463 884.311 208.546 867 222.532 853.631Z"/>
	<path fill="#372D34" d="M199.282 903.659L199.722 904.777C204.582 905.855 225.001 904.987 231.621 904.988L317.956 905.049L317.938 922.616C278.552 921.917 238.896 923.762 199.462 923.064C199.3 916.653 198.521 910.042 199.282 903.659Z"/>
	<path d="M129.34 208.5C133.325 204.108 137.145 196.473 140.513 191.316Q150.317 176.016 161.823 161.952Q163.976 159.296 166.181 156.682Q168.386 154.069 170.643 151.501Q172.9 148.932 175.208 146.409Q177.515 143.886 179.873 141.409Q182.23 138.932 184.636 136.503Q187.042 134.074 189.497 131.693Q191.951 129.312 194.452 126.98Q196.953 124.649 199.5 122.367Q202.047 120.086 204.639 117.856Q207.23 115.626 209.866 113.448Q212.502 111.27 215.181 109.144Q217.859 107.019 220.58 104.948Q223.3 102.876 226.061 100.86Q228.822 98.8428 231.623 96.8814Q234.424 94.92 237.263 93.0147Q240.103 91.1094 242.979 89.2611Q245.856 87.4127 248.769 85.622Q251.681 83.8313 254.629 82.0989Q257.577 80.3666 260.559 78.6933Q263.541 77.02 266.556 75.4064Q269.57 73.7928 272.616 72.2396Q275.663 70.6863 278.739 69.1941Q281.815 67.7018 284.921 66.2711Q288.027 64.8403 291.16 63.4718Q294.293 62.1032 297.453 60.7972Q300.614 59.4913 303.799 58.2486Q306.984 57.0058 310.194 55.8268Q313.404 54.6477 316.636 53.5328Q319.868 52.4179 323.122 51.3676Q326.376 50.3172 329.65 49.3319Q332.925 48.3466 336.218 47.4267Q339.511 46.5068 342.822 45.6526Q355.763 42.3967 368.944 40.3198Q382.126 38.2428 395.441 37.3616C412.809 36.1253 430.216 36.3783 447.618 36.3384L521.634 36.2633L590.622 36.3034C614.898 36.3472 639.247 36.0332 663.232 40.357C701.36 47.2304 736.599 61.0177 769.883 80.7053L773.219 82.6847C779.254 86.1374 795.295 95.944 799.201 101.082C799.011 101.372 798.87 101.715 798.599 101.932C780.198 119.794 762.567 138.546 744.698 156.937C725.376 176.824 705.749 196.513 686.955 216.9C686.508 229.338 686.515 241.86 686.605 254.305C686.641 259.334 687.562 266.026 686.66 270.858Q686.639 271.56 686.584 272.261Q686.528 272.961 686.438 273.658Q686.348 274.355 686.223 275.046Q686.098 275.737 685.939 276.422Q685.78 277.106 685.587 277.782Q685.394 278.458 685.168 279.123Q684.942 279.788 684.683 280.441Q684.424 281.094 684.133 281.734Q683.842 282.373 683.52 282.998Q683.198 283.622 682.845 284.229Q682.492 284.837 682.109 285.426Q681.726 286.015 681.314 286.584Q680.903 287.154 680.464 287.702Q680.024 288.25 679.558 288.776Q679.092 289.302 678.601 289.804Q678.109 290.306 677.593 290.783C670.297 297.551 662.018 298.242 652.616 298.044L652.637 327.583C648.801 328.739 641.92 327.939 637.88 327.812C637.195 326.444 637.49 324.478 637.521 322.94L637.17 322.831C637.169 324.729 637.408 325.941 636.482 327.622C633.07 329.494 628.464 329.444 624.625 330.295C624.64 330.634 624.755 330.983 624.668 331.311C624.46 332.099 593.635 384.844 592.398 386.455C587.23 384.342 581.796 381.58 576.145 381.38C576.014 375.092 574.347 368.878 569.565 364.496C563.354 358.804 554.697 358.667 546.792 359.053C543.558 363.99 539.338 368.404 535.694 373.055C530.958 379.099 526.574 385.433 521.762 391.411C518.861 395.015 515.395 398.539 512.815 402.358C503.151 393.767 480.433 363.212 472.141 359.242C473.065 355.211 472.132 335.832 472.146 330.47C471.935 326.634 472.055 322.766 472.085 318.924C469.844 316.482 466.983 314.405 464.556 312.115C459.948 307.767 456.24 302.956 452.632 297.766L409.24 297.701C401.752 297.702 393.954 297.277 386.507 297.85C381.509 298.207 376.3 297.972 371.312 297.614L371.583 330.499L329.463 330.544C306.789 330.569 287.54 327.931 270.094 345.46Q268.948 346.602 267.876 347.814Q266.805 349.027 265.814 350.305Q264.822 351.584 263.914 352.923Q263.007 354.263 262.186 355.657Q261.366 357.052 260.637 358.496Q259.907 359.94 259.272 361.428Q258.636 362.916 258.097 364.442Q257.558 365.967 257.117 367.524C253.928 379.095 253.58 398.822 252.43 411.538Q249.867 440.612 247.641 469.714C246.718 480.978 245.303 492.354 244.927 503.641C244.063 508.436 243.945 513.634 243.515 518.495C242.71 527.608 241.759 536.769 241.425 545.91C233.479 539.04 223.647 533.82 215.304 527.254Q213.091 525.538 210.921 523.768Q208.752 521.997 206.628 520.172Q204.503 518.347 202.425 516.47Q200.347 514.593 198.317 512.664Q196.287 510.735 194.306 508.755Q192.325 506.776 190.395 504.748Q188.464 502.719 186.585 500.643Q184.705 498.567 182.879 496.444Q181.052 494.321 179.28 492.153Q177.507 489.985 175.789 487.774Q174.072 485.562 172.41 483.308Q170.749 481.054 169.144 478.758Q167.539 476.463 165.993 474.129Q164.447 471.794 162.959 469.421Q161.472 467.048 160.045 464.639Q158.617 462.23 157.251 459.785Q155.885 457.341 154.58 454.863Q153.276 452.385 152.034 449.875Q150.792 447.365 149.613 444.825Q148.434 442.284 147.32 439.715Q146.205 437.146 145.156 434.55Q144.106 431.954 143.122 429.332Q142.138 426.71 141.22 424.065Q140.302 421.419 139.451 418.751Q138.599 416.083 137.815 413.395Q137.031 410.707 136.315 407.999Q135.598 405.292 134.95 402.568Q134.302 399.843 133.722 397.104Q133.143 394.364 132.632 391.61Q132.121 388.857 131.68 386.092Q131.239 383.326 130.867 380.551Q130.495 377.775 130.193 374.991C128.761 360.719 129.322 346.105 129.342 331.77L129.49 265.807L129.588 227.911C129.603 221.71 130.174 215.019 129.397 208.907C129.38 208.771 129.359 208.636 129.34 208.5Z"/>
	<path fill="#1E1E1E" d="M433.024 124.013L433.952 123.954C435.66 123.153 445.357 108.862 447.4 106.46C460.584 90.9599 480.219 80.7565 500.497 79.3489C518.105 78.1266 534.465 83.7821 547.69 95.3326C554.296 88.8941 562.333 84.2884 571.418 82.422C578.604 80.9456 586.172 81.3034 593.473 81.2912L620.158 81.2808Q671.465 81.4624 722.77 81.046L752.253 80.9996C758.087 80.9931 764.08 81.2674 769.883 80.7053L773.219 82.6847C779.254 86.1374 795.295 95.944 799.201 101.082C799.011 101.372 798.87 101.715 798.599 101.932C780.198 119.794 762.567 138.546 744.698 156.937C725.376 176.824 705.749 196.513 686.955 216.9L687.035 211.363C687.136 203.241 688.078 194.025 681.711 187.811C679.325 185.482 676.254 183.692 672.968 183.035C665.396 181.52 655.914 182.54 648.155 182.545L595.203 182.599L593.048 168.491C591.003 170.357 588.988 171.98 586.582 173.364C583.78 174.977 572.304 179.262 571.248 180.893C571.201 180.841 571.171 180.767 571.107 180.737C569.407 179.948 561.51 182.279 558.982 182.496C526.745 185.26 488.78 172.817 464.065 152.135C461.56 148.527 451.009 140.725 446.961 137.036C443.185 133.595 437.17 125.942 433.024 124.013Z"/>
	<path d="M773.219 82.6847C779.254 86.1374 795.295 95.944 799.201 101.082C799.011 101.372 798.87 101.715 798.599 101.932C792.477 102.67 786.188 102.461 780.027 102.497L750.55 102.645L631.859 102.502L604.019 102.453C599.17 102.434 593.591 101.92 588.838 102.762C585.276 101.385 582.029 99.6496 578.316 98.5946C569.505 96.0905 561.169 97.1277 553.175 101.631C551.633 100.121 550.352 98.4079 549.021 96.7146L549.626 96.0522C555.268 89.8971 563.374 85.6726 571.565 84.1263C579.636 82.6025 588.08 82.9803 596.263 82.9633L626.108 82.9233L730.349 82.7407C744.217 82.6603 758.447 83.4121 772.272 82.7351L773.219 82.6847Z"/>
	<path fill="#5B5B5B" d="M588.838 102.762C593.591 101.92 599.17 102.434 604.019 102.453L631.859 102.502L750.55 102.645L780.027 102.497C786.188 102.461 792.477 102.67 798.599 101.932C780.198 119.794 762.567 138.546 744.698 156.937C725.376 176.824 705.749 196.513 686.955 216.9L687.035 211.363C687.136 203.241 688.078 194.025 681.711 187.811C679.325 185.482 676.254 183.692 672.968 183.035C665.396 181.52 655.914 182.54 648.155 182.545L595.203 182.599L593.048 168.491C595.274 166.189 597.542 163.888 599.392 161.264C605.786 152.194 608.914 139.913 606.891 128.942C604.855 117.9 597.922 109.053 588.838 102.762Z"/>
	<path fill="#767676" d="M433.024 124.013C437.17 125.942 443.185 133.595 446.961 137.036C451.009 140.725 461.56 148.527 464.065 152.135C488.78 172.817 526.745 185.26 558.982 182.496C561.51 182.279 569.407 179.948 571.107 180.737C571.171 180.767 571.201 180.841 571.248 180.893C572.304 179.262 583.78 174.977 586.582 173.364C588.988 171.98 591.003 170.357 593.048 168.491L595.203 182.599L648.155 182.545C655.914 182.54 665.396 181.52 672.968 183.035C676.254 183.692 679.325 185.482 681.711 187.811C688.078 194.025 687.136 203.241 687.035 211.363L686.955 216.9C686.508 229.338 686.515 241.86 686.605 254.305C686.641 259.334 687.562 266.026 686.66 270.858Q686.639 271.56 686.584 272.261Q686.528 272.961 686.438 273.658Q686.348 274.355 686.223 275.046Q686.098 275.737 685.939 276.422Q685.78 277.106 685.587 277.782Q685.394 278.458 685.168 279.123Q684.942 279.788 684.683 280.441Q684.424 281.094 684.133 281.734Q683.842 282.373 683.52 282.998Q683.198 283.622 682.845 284.229Q682.492 284.837 682.109 285.426Q681.726 286.015 681.314 286.584Q680.903 287.154 680.464 287.702Q680.024 288.25 679.558 288.776Q679.092 289.302 678.601 289.804Q678.109 290.306 677.593 290.783C670.297 297.551 662.018 298.242 652.616 298.044L652.637 327.583C648.801 328.739 641.92 327.939 637.88 327.812C637.195 326.444 637.49 324.478 637.521 322.94L637.17 322.831C637.169 324.729 637.408 325.941 636.482 327.622C633.07 329.494 628.464 329.444 624.625 330.295C624.64 330.634 624.755 330.983 624.668 331.311C624.46 332.099 593.635 384.844 592.398 386.455C587.23 384.342 581.796 381.58 576.145 381.38C576.014 375.092 574.347 368.878 569.565 364.496C563.354 358.804 554.697 358.667 546.792 359.053C543.558 363.99 539.338 368.404 535.694 373.055C530.958 379.099 526.574 385.433 521.762 391.411C518.861 395.015 515.395 398.539 512.815 402.358C503.151 393.767 480.433 363.212 472.141 359.242C473.065 355.211 472.132 335.832 472.146 330.47C471.935 326.634 472.055 322.766 472.085 318.924C469.844 316.482 466.983 314.405 464.556 312.115C459.948 307.767 456.24 302.956 452.632 297.766C449.768 292.656 447.259 287.439 444.846 282.108C443.27 277.445 441.746 272.819 440.526 268.045C436.94 269.082 433.477 269.693 429.727 269.447C422.822 268.994 416.397 265.905 411.929 260.583C406.537 254.161 405.709 247.045 406.271 239.04C404.872 213.349 405.858 187.598 405.462 161.894C405.459 156.176 407.423 149.603 409.818 144.435C414.637 134.031 422.406 127.822 433.024 124.013Z"/>
	<path fill="#6E6E6E" d="M490.905 283.42C494.147 283.906 497.441 285.027 500.662 285.728Q503.576 286.366 506.529 286.79Q509.482 287.214 512.459 287.422Q515.435 287.629 518.418 287.619Q521.401 287.609 524.376 287.381C529.803 286.956 535.056 285.06 540.473 284.817L540.894 285.22L539.069 286.623C533.568 289.692 528.074 291.799 521.752 292.37C510.923 293.347 499.318 290.472 490.905 283.42Z"/>
	<path d="M547.02 221.013C548.144 220.935 549.254 220.846 550.372 221.042C552.65 221.443 554.719 223.029 555.971 224.94C557.191 226.803 557.633 229.073 557.036 231.234C556.327 233.803 554.563 235.318 552.292 236.522C550.902 236.586 549.42 236.694 548.045 236.442C545.934 236.055 543.819 234.391 542.693 232.598Q542.499 232.29 542.337 231.963Q542.176 231.637 542.048 231.296Q541.92 230.955 541.828 230.602Q541.735 230.25 541.679 229.89Q541.623 229.53 541.603 229.167Q541.584 228.803 541.602 228.439Q541.619 228.075 541.674 227.715Q541.728 227.355 541.819 227.002C542.558 224.063 544.549 222.525 547.02 221.013Z"/>
	<path fill="#797073" d="M591.097 243.88C592.293 247.867 592.919 252.746 590.743 256.521C588.507 260.402 584.166 262.941 580.406 265.175L573.027 267.824C573.806 262.033 573.063 256.179 573.936 250.414C573.946 252.154 573.67 254.343 574.34 255.948C576.071 256.373 577.104 255.986 578.706 255.247C583.766 252.914 589.119 249.242 591.097 243.88Z"/>
	<path d="M473.981 221.606C475.628 221.39 477.305 221.146 478.962 221.405C481.166 221.749 483.277 223.228 484.452 225.115C485.512 226.816 485.779 228.814 485.256 230.743C484.473 233.633 482.604 235.204 480.133 236.685C478.777 236.895 477.392 237.141 476.021 236.94C473.781 236.611 471.682 235.398 470.375 233.534C469.094 231.708 468.723 229.471 469.2 227.304C469.841 224.394 471.543 223.084 473.981 221.606Z"/>
	<path fill="#6E6E6E" d="M511.649 229.478C513.065 229.374 514.112 229.309 515.49 229.78C517.333 232.822 516.466 255.133 516.507 260.255C518.408 261.101 520.247 261.959 521.984 263.116C523.605 264.195 524.999 265.179 525.395 267.148L524.283 267.877C522.61 267.971 520.9 268.096 519.231 267.898C515.183 267.417 513.068 265.155 510.655 262.136Q510.446 259.984 510.283 257.829C509.992 253.769 508.911 233.822 510.362 230.957C510.657 230.373 511.22 229.971 511.649 229.478Z"/>
	<path fill="#6E6E6E" d="M574.392 231.472C577.811 230.695 581.743 231.5 584.725 233.353C588.038 235.411 590.03 238.608 590.835 242.375C590.941 242.873 591.016 243.377 591.097 243.88C589.119 249.242 583.766 252.914 578.706 255.247C577.104 255.986 576.071 256.373 574.34 255.948C573.67 254.343 573.946 252.154 573.936 250.414C574.258 244.096 574.354 237.798 574.392 231.472Z"/>
	<path d="M539.587 196.072C546.737 195.593 556.612 196.059 562.549 200.571C564.352 201.941 565.884 203.95 566.064 206.277C566.178 207.755 565.686 209.296 564.544 210.285C563.094 211.541 561.594 211.632 559.802 211.334C552.41 207.514 551.381 207.173 543.208 208.536C541.453 208.829 539.553 209.12 537.789 208.769C536.445 208.501 535.279 207.802 534.609 206.57C533.65 204.808 533.536 201.136 534.423 199.37C535.355 197.516 537.803 196.737 539.587 196.072Z"/>
	<path d="M474.685 196.631C478.768 196.438 483.426 195.831 487.368 197.042C489.136 197.584 490.869 198.633 491.621 200.405C492.404 202.248 491.797 203.861 491.119 205.59L490.599 204.991L490.918 205.97C490.608 206.502 490.515 206.698 490.089 207.227C489.593 207.843 488.528 209.054 487.756 209.257C485.804 209.771 477.222 208.306 473.874 208.468C471.57 208.859 469.909 209.641 467.809 210.598C465.685 211.565 463.69 212.257 461.425 211.151C460.294 210.599 459.579 209.814 459.28 208.568C458.882 206.912 459.641 204.917 460.543 203.542C463.641 198.816 469.522 197.637 474.685 196.631Z"/>
	<path d="M593.048 168.491L595.203 182.599L598.363 216.899C598.93 223.191 599.903 229.799 599.76 236.111C598.333 233.579 596.754 231.043 594.723 228.945C588.779 222.807 581.899 221.945 573.815 221.944C573.35 217.01 573.507 211.96 573.302 207.002Q572.776 196.539 571.614 186.127L571.248 180.893C572.304 179.262 583.78 174.977 586.582 173.364C588.988 171.98 591.003 170.357 593.048 168.491Z"/>
	<path fill="#6E6E6E" d="M433.024 124.013C437.17 125.942 443.185 133.595 446.961 137.036C451.009 140.725 461.56 148.527 464.065 152.135C488.78 172.817 526.745 185.26 558.982 182.496C561.51 182.279 569.407 179.948 571.107 180.737C571.171 180.767 571.201 180.841 571.248 180.893L571.614 186.127Q570.045 186.51 568.468 186.855Q566.89 187.2 565.305 187.505Q563.719 187.811 562.126 188.077Q560.534 188.343 558.935 188.57Q557.336 188.797 555.732 188.985Q554.128 189.172 552.52 189.32Q550.912 189.468 549.301 189.576Q547.69 189.684 546.077 189.753Q544.463 189.821 542.849 189.849Q541.234 189.878 539.619 189.867Q538.005 189.855 536.391 189.804Q534.777 189.753 533.164 189.662Q531.552 189.571 529.943 189.44Q528.333 189.31 526.727 189.139Q525.122 188.969 523.521 188.759Q521.919 188.549 520.324 188.3Q518.729 188.05 517.14 187.762Q515.551 187.473 513.97 187.145Q512.389 186.818 510.816 186.451Q509.243 186.084 507.68 185.679Q506.117 185.274 504.565 184.83Q503.012 184.386 501.471 183.904Q499.93 183.422 498.401 182.902Q496.872 182.382 495.356 181.825Q493.841 181.268 492.339 180.673Q490.838 180.078 489.352 179.447Q487.866 178.816 486.396 178.148Q484.925 177.48 483.472 176.776Q482.019 176.072 480.583 175.332Q479.148 174.592 477.731 173.818Q476.314 173.043 474.917 172.233Q473.52 171.424 472.143 170.58Q469.747 169.116 467.374 167.617C449.889 191.519 448.665 221.162 453.074 249.498C456.93 274.282 469.806 300.502 490.474 315.532C500.534 322.848 512.871 326.873 525.295 324.835C532.127 323.714 545.48 316.21 546.283 316.138C546.608 316.109 546.926 316.257 547.248 316.317C546.787 320.931 546.561 325.473 546.509 330.109L546.524 347.951C546.577 351.601 546.387 355.434 546.792 359.053C543.558 363.99 539.338 368.404 535.694 373.055C530.958 379.099 526.574 385.433 521.762 391.411C518.861 395.015 515.395 398.539 512.815 402.358C503.151 393.767 480.433 363.212 472.141 359.242C473.065 355.211 472.132 335.832 472.146 330.47C471.935 326.634 472.055 322.766 472.085 318.924C469.844 316.482 466.983 314.405 464.556 312.115C459.948 307.767 456.24 302.956 452.632 297.766C449.768 292.656 447.259 287.439 444.846 282.108C443.27 277.445 441.746 272.819 440.526 268.045C436.94 269.082 433.477 269.693 429.727 269.447C422.822 268.994 416.397 265.905 411.929 260.583C406.537 254.161 405.709 247.045 406.271 239.04C404.872 213.349 405.858 187.598 405.462 161.894C405.459 156.176 407.423 149.603 409.818 144.435C414.637 134.031 422.406 127.822 433.024 124.013Z"/>
	<path fill="#4F494D" d="M429.046 231.147C432.896 231.311 435.956 232.414 439.509 233.786L439.504 260.016C436.508 259.547 433.661 258.869 430.738 258.072L429.714 257.527C424.728 254.92 421.436 252.267 418.547 247.355C418.437 243.263 418.782 239.208 421.249 235.758C423.271 232.931 425.688 231.694 429.046 231.147Z"/>
	<path fill="#797073" d="M472.085 318.924L472.583 319.343C477.031 323.133 480.981 327.457 485.439 331.238C499.997 343.588 516.974 350.831 536.28 349.325C539.708 349.057 543.133 348.507 546.524 347.951C546.577 351.601 546.387 355.434 546.792 359.053C543.558 363.99 539.338 368.404 535.694 373.055C530.958 379.099 526.574 385.433 521.762 391.411C518.861 395.015 515.395 398.539 512.815 402.358C503.151 393.767 480.433 363.212 472.141 359.242C473.065 355.211 472.132 335.832 472.146 330.47C471.935 326.634 472.055 322.766 472.085 318.924Z"/>
	<path d="M433.024 124.013C437.17 125.942 443.185 133.595 446.961 137.036C451.009 140.725 461.56 148.527 464.065 152.135C446.826 168.347 442.114 200.623 440.629 223.302C434.35 220.575 427.71 219.029 421.026 221.504C415.174 223.671 410.216 228.796 407.757 234.484C407.13 235.934 406.651 237.506 406.271 239.04C404.872 213.349 405.858 187.598 405.462 161.894C405.459 156.176 407.423 149.603 409.818 144.435C414.637 134.031 422.406 127.822 433.024 124.013Z"/>
	<path fill="#676767" d="M595.203 182.599L648.155 182.545C655.914 182.54 665.396 181.52 672.968 183.035C676.254 183.692 679.325 185.482 681.711 187.811C688.078 194.025 687.136 203.241 687.035 211.363L686.955 216.9C686.508 229.338 686.515 241.86 686.605 254.305C686.641 259.334 687.562 266.026 686.66 270.858Q686.639 271.56 686.584 272.261Q686.528 272.961 686.438 273.658Q686.348 274.355 686.223 275.046Q686.098 275.737 685.939 276.422Q685.78 277.106 685.587 277.782Q685.394 278.458 685.168 279.123Q684.942 279.788 684.683 280.441Q684.424 281.094 684.133 281.734Q683.842 282.373 683.52 282.998Q683.198 283.622 682.845 284.229Q682.492 284.837 682.109 285.426Q681.726 286.015 681.314 286.584Q680.903 287.154 680.464 287.702Q680.024 288.25 679.558 288.776Q679.092 289.302 678.601 289.804Q678.109 290.306 677.593 290.783C670.297 297.551 662.018 298.242 652.616 298.044L652.637 327.583C648.801 328.739 641.92 327.939 637.88 327.812C637.195 326.444 637.49 324.478 637.521 322.94L637.17 322.831C637.169 324.729 637.408 325.941 636.482 327.622C633.07 329.494 628.464 329.444 624.625 330.295C624.64 330.634 624.755 330.983 624.668 331.311C624.46 332.099 593.635 384.844 592.398 386.455C587.23 384.342 581.796 381.58 576.145 381.38C576.014 375.092 574.347 368.878 569.565 364.496C563.354 358.804 554.697 358.667 546.792 359.053C546.387 355.434 546.577 351.601 546.524 347.951L546.509 330.109C546.561 325.473 546.787 320.931 547.248 316.317C547.713 315.703 547.479 315.922 548.109 315.458C555.13 310.285 559.461 305.177 563.941 297.712C568.902 288.188 571.147 278.869 572.8 268.346C576.484 269.203 579.881 269.098 583.599 268.739C585.719 268.345 587.775 267.783 589.752 266.907C596.014 264.133 599.023 259.027 601.288 252.901C602.201 246.673 601.666 242.045 599.76 236.111C599.903 229.799 598.93 223.191 598.363 216.899L595.203 182.599Z"/>
	<path fill="#373535" d="M601.288 252.901C603.047 260.167 602.856 275.386 603.076 283.475Q626.003 283.581 648.93 283.429C656.046 283.417 664.373 284.439 671.279 282.959C674.558 282.257 677.354 280.019 679.678 277.713C681.32 276.083 684.636 271.33 686.66 270.858Q686.639 271.56 686.584 272.261Q686.528 272.961 686.438 273.658Q686.348 274.355 686.223 275.046Q686.098 275.737 685.939 276.422Q685.78 277.106 685.587 277.782Q685.394 278.458 685.168 279.123Q684.942 279.788 684.683 280.441Q684.424 281.094 684.133 281.734Q683.842 282.373 683.52 282.998Q683.198 283.622 682.845 284.229Q682.492 284.837 682.109 285.426Q681.726 286.015 681.314 286.584Q680.903 287.154 680.464 287.702Q680.024 288.25 679.558 288.776Q679.092 289.302 678.601 289.804Q678.109 290.306 677.593 290.783C670.297 297.551 662.018 298.242 652.616 298.044L652.637 327.583C648.801 328.739 641.92 327.939 637.88 327.812C637.195 326.444 637.49 324.478 637.521 322.94L637.17 322.831L637.037 297.75C631.7 296.565 620.435 297.448 614.61 297.454C597.745 297.471 580.795 297.141 563.941 297.712C568.902 288.188 571.147 278.869 572.8 268.346C576.484 269.203 579.881 269.098 583.599 268.739C585.719 268.345 587.775 267.783 589.752 266.907C596.014 264.133 599.023 259.027 601.288 252.901Z"/>
	<path d="M637.556 297.956Q645.086 297.937 652.616 298.044L652.637 327.583C648.801 328.739 641.92 327.939 637.88 327.812C637.195 326.444 637.49 324.478 637.521 322.94C637.884 314.649 637.595 306.258 637.556 297.956Z"/>
	<path fill="#5B5B5B" d="M563.941 297.712C580.795 297.141 597.745 297.471 614.61 297.454C620.435 297.448 631.7 296.565 637.037 297.75L637.17 322.831C637.169 324.729 637.408 325.941 636.482 327.622C633.07 329.494 628.464 329.444 624.625 330.295C624.64 330.634 624.755 330.983 624.668 331.311C624.46 332.099 593.635 384.844 592.398 386.455C587.23 384.342 581.796 381.58 576.145 381.38C576.014 375.092 574.347 368.878 569.565 364.496C563.354 358.804 554.697 358.667 546.792 359.053C546.387 355.434 546.577 351.601 546.524 347.951L546.509 330.109C546.561 325.473 546.787 320.931 547.248 316.317C547.713 315.703 547.479 315.922 548.109 315.458C555.13 310.285 559.461 305.177 563.941 297.712Z"/>
	<path fill="#050505" d="M613.827 297.875C621.562 297.868 629.306 298.029 637.037 297.75L637.17 322.831C637.169 324.729 637.408 325.941 636.482 327.622C633.07 329.494 628.464 329.444 624.625 330.295C611.261 330.718 597.805 330.575 584.434 330.41C585.235 324.841 609.435 304.418 613.827 297.875Z"/>
	<path d="M546.509 330.109C559.081 330.186 571.892 329.744 584.434 330.41C597.805 330.575 611.261 330.718 624.625 330.295C624.64 330.634 624.755 330.983 624.668 331.311C624.46 332.099 593.635 384.844 592.398 386.455C587.23 384.342 581.796 381.58 576.145 381.38C576.014 375.092 574.347 368.878 569.565 364.496C563.354 358.804 554.697 358.667 546.792 359.053C546.387 355.434 546.577 351.601 546.524 347.951L546.509 330.109Z"/>
	<path fill="#5B5B5B" d="M244.927 503.641C244.12 504.074 243.763 504.062 242.829 503.825C239.968 503.096 236.222 500.408 233.666 498.901C213.098 486.775 194.807 468.837 182.09 448.601Q180.225 445.666 178.509 442.641Q176.794 439.616 175.233 436.508Q173.673 433.4 172.271 430.218Q170.868 427.035 169.628 423.786Q168.388 420.537 167.314 417.23Q166.239 413.923 165.332 410.565Q164.425 407.208 163.689 403.809Q162.952 400.411 162.388 396.979C159.306 379.192 159.941 360.918 159.943 342.934L159.993 278.623L159.946 238.92C159.937 228.804 159.094 217.913 161.431 208.01C165.067 192.6 174.979 177.959 188.526 169.592C195.59 165.23 203.922 161.945 212.185 160.935C223.478 159.554 235.618 160.453 247.04 160.461L313.176 160.511L377.816 160.594C384.73 160.589 398.601 159.477 404.661 160.889L405.163 161.9L405.462 161.894C405.858 187.598 404.872 213.349 406.271 239.04C405.709 247.045 406.537 254.161 411.929 260.583C416.397 265.905 422.822 268.994 429.727 269.447C433.477 269.693 436.94 269.082 440.526 268.045C441.746 272.819 443.27 277.445 444.846 282.108C447.259 287.439 449.768 292.656 452.632 297.766L409.24 297.701C401.752 297.702 393.954 297.277 386.507 297.85C381.509 298.207 376.3 297.972 371.312 297.614L371.583 330.499L329.463 330.544C306.789 330.569 287.54 327.931 270.094 345.46Q268.948 346.602 267.876 347.814Q266.805 349.027 265.814 350.305Q264.822 351.584 263.914 352.923Q263.007 354.263 262.186 355.657Q261.366 357.052 260.637 358.496Q259.907 359.94 259.272 361.428Q258.636 362.916 258.097 364.442Q257.558 365.967 257.117 367.524C253.928 379.095 253.58 398.822 252.43 411.538Q249.867 440.612 247.641 469.714C246.718 480.978 245.303 492.354 244.927 503.641Z"/>
	<path fill="#050505" d="M220.099 196.492C221.167 196.43 222.289 196.342 223.348 196.527C225.72 196.942 228.074 198.559 229.285 200.64C230.437 202.622 230.598 205.038 229.945 207.212C229.025 210.272 227.102 211.464 224.417 212.94C223.175 213.017 221.844 213.153 220.608 212.967C218.572 212.661 216.423 211.297 215.28 209.587C213.983 207.649 213.812 205.449 214.331 203.219C215.123 199.815 217.276 198.272 220.099 196.492Z"/>
	<path fill="#050505" d="M211.213 276.523C212.329 276.659 213.357 276.813 214.412 277.223C216.554 278.055 218.495 279.675 219.396 281.824C220.308 283.996 220.133 286.409 219.145 288.523C217.781 291.44 215.481 292.579 212.616 293.712C211.487 293.555 210.327 293.344 209.247 292.971C206.85 292.143 204.818 290.387 203.89 288.004C203.096 285.964 203.334 283.612 204.339 281.69C205.817 278.865 208.314 277.536 211.213 276.523Z"/>
	<path fill="#050505" d="M286.25 199.097C289.681 198.794 293.261 199.271 296.274 201.057C298.578 202.422 300.003 204.633 300.582 207.225C301.902 213.132 299.431 219.305 296.346 224.263C289.366 235.478 278.691 243.446 265.813 246.418C262.059 246.64 258.889 246.68 255.518 244.698C253.274 243.38 251.829 241.35 251.291 238.81C249.925 232.373 253.241 224.604 256.795 219.31C263.483 209.346 274.384 201.367 286.25 199.097Z"/>
	<path fill="#676767" d="M405.163 161.9L405.462 161.894C405.858 187.598 404.872 213.349 406.271 239.04C405.709 247.045 406.537 254.161 411.929 260.583C416.397 265.905 422.822 268.994 429.727 269.447C433.477 269.693 436.94 269.082 440.526 268.045C441.746 272.819 443.27 277.445 444.846 282.108C447.259 287.439 449.768 292.656 452.632 297.766L409.24 297.701C401.752 297.702 393.954 297.277 386.507 297.85C381.509 298.207 376.3 297.972 371.312 297.614C361.632 296.739 353.229 299.068 345.069 291.869C339.4 286.866 337.41 281.346 337.059 273.973C336.35 259.054 336.943 243.848 336.963 228.901C336.977 218.624 335.956 207.143 337.607 197.056C338.187 193.511 339.131 190.576 341.663 187.916C346.277 183.071 352.448 183.021 358.649 182.996C374.112 182.497 389.7 183.625 405.147 182.756C405.066 175.804 404.931 168.85 405.163 161.9Z"/>
	<path fill="#373535" d="M371.312 297.614C361.632 296.739 353.229 299.068 345.069 291.869C339.4 286.866 337.41 281.346 337.059 273.973C336.35 259.054 336.943 243.848 336.963 228.901C336.977 218.624 335.956 207.143 337.607 197.056C338.187 193.511 339.131 190.576 341.663 187.916C346.277 183.071 352.448 183.021 358.649 182.996C353.343 187.843 350.871 191.235 350.568 198.661C350.085 210.501 350.66 222.496 350.609 234.358C350.569 243.642 349.291 260.148 350.984 268.644C351.521 271.336 352.855 273.566 354.674 275.598C359.024 280.46 363.453 281.873 369.756 282.075C388.441 282.675 407.327 282.052 426.033 282.044C432.273 282.042 438.625 281.776 444.846 282.108C447.259 287.439 449.768 292.656 452.632 297.766L409.24 297.701C401.752 297.702 393.954 297.277 386.507 297.85C381.509 298.207 376.3 297.972 371.312 297.614Z"/>
	<path fill="#797979" d="M637.17 322.831L637.521 322.94C637.49 324.478 637.195 326.444 637.88 327.812C641.92 327.939 648.801 328.739 652.637 327.583C655.407 328.736 660.57 327.991 663.676 327.942C670.939 327.899 678.918 328.622 686.087 327.868C686.195 328.848 686.335 329.785 686.272 330.772C685.078 331.263 684.592 331.822 683.865 332.841C679.195 339.393 675.486 347.02 671.533 354.042C662.105 370.792 653.012 388.143 642.644 404.311C662.811 414.395 684.74 443.624 694.655 463.65C700.163 474.776 704.118 486.581 708.028 498.341C719.624 533.213 727.959 569.276 737.776 604.682Q744.819 629.197 751.324 653.86C753.697 662.762 756.92 672.153 757.667 681.334C758.444 690.892 756.44 701.024 752.175 709.607C747.789 718.432 739.438 725.618 732.83 732.842L711.888 755.952Q697.437 772.094 682.746 788.017C678.132 793.112 673.762 798.502 668.97 803.423C657.831 815.401 646.99 827.614 635.688 839.444C634.411 840.875 633.114 842.761 631.253 843.392C630.235 842.863 630.39 842.937 629.866 842.062C626.231 844.932 622.949 851.346 620.288 855.231C608.383 872.608 597.326 890.62 585.278 907.875C581.509 913.126 574.654 928.563 568.131 929.412C566.395 929.638 564.587 929.122 563.305 927.909C562.311 926.968 562.308 925.873 562.192 924.619C562.115 923.792 562.158 924.135 561.844 923.143C561.061 923.85 560.84 924.557 560.423 925.505C559.613 927.342 558.838 928.774 556.867 929.548C554.697 930.4 551.452 929.792 549.326 929.052C548.873 947.192 549.397 965.452 549.395 983.606L483.113 983.41C469.707 984.193 455.825 983.357 442.353 983.395L351.466 983.503L317.975 983.58Q317.678 953.097 317.938 922.616L317.956 905.049C317.818 881.172 325.387 861.819 339.679 842.979C342.794 840.619 345.683 835.661 348.22 832.58C354.842 824.54 362.168 816.7 368.259 808.261Q339.345 778.434 310.965 748.099C300.528 737.133 288.78 726.78 279.657 714.697C275.867 709.678 272.776 703.72 271.202 697.613C269.581 691.329 269.514 684.192 270.664 677.823C272.18 669.435 275.017 661.184 277.401 653.003L290.649 607.843Q303.624 561.24 317.626 514.934C323.61 494.978 327.944 474.183 338.575 456.028C360.937 417.837 397.76 395.976 439.574 385.148C441.593 384.273 443.681 383.613 445.767 382.92C445.344 381.042 445.036 379.183 445.126 377.249C445.37 372.014 447.635 367.066 451.663 363.675C457.544 358.723 464.903 358.544 472.141 359.242C480.433 363.212 503.151 393.767 512.815 402.358C515.395 398.539 518.861 395.015 521.762 391.411C526.574 385.433 530.958 379.099 535.694 373.055C539.338 368.404 543.558 363.99 546.792 359.053C554.697 358.667 563.354 358.804 569.565 364.496C574.347 368.878 576.014 375.092 576.145 381.38C581.796 381.58 587.23 384.342 592.398 386.455C593.635 384.844 624.46 332.099 624.668 331.311C624.755 330.983 624.64 330.634 624.625 330.295C628.464 329.444 633.07 329.494 636.482 327.622C637.408 325.941 637.169 324.729 637.17 322.831Z"/>
	<path fill="#797073" d="M437.705 729.98Q451.625 730.033 465.545 729.908L466.108 730.067L560.471 730.413L589.678 730.425C593.857 730.424 598.383 729.941 602.52 730.366C604.053 730.524 605.677 731.005 606.802 732.106C608.139 733.414 609.474 735.247 609.471 737.183C609.469 738.162 608.889 739.109 608.169 739.751C606.091 741.602 603.019 742.226 600.333 742.457C595.204 742.897 589.832 742.563 584.679 742.531Q570.545 742.413 556.411 742.465C528.078 742.517 499.598 743.053 471.28 742.394C469.754 742.44 467.549 742.234 466.243 743.018C465.195 750.621 465.581 758.848 465.557 766.542L425.029 766.455C422.884 764.161 419.787 761.318 418.755 758.35C421.762 752.389 426.191 746.811 430.039 741.367C432.439 737.486 435.136 733.753 437.705 729.98Z"/>
	<path fill="#6E6E6E" d="M437.705 729.98Q451.625 730.033 465.545 729.908L466.108 730.067C467.955 732.274 467.088 738.092 466.856 740.911Q466.805 741.478 466.736 742.043C458.526 742.122 436.825 743.128 430.039 741.367C432.439 737.486 435.136 733.753 437.705 729.98Z"/>
	<path fill="#797073" d="M647.946 616.976C647.992 604.767 648.793 592.52 649.185 580.312Q650.322 540.522 652.203 500.761L688.477 640.068L697.323 673.725C699.358 681.492 701.213 689.524 704.059 697.042C697.987 703.726 692.317 710.76 686.301 717.496C670.291 735.42 654.07 753.119 638.213 771.189Q626.456 784.558 614.916 798.114C611.498 802.113 607.648 806.009 604.55 810.242C615.12 819.801 625.716 829.254 635.688 839.444C634.411 840.875 633.114 842.761 631.253 843.392C630.235 842.863 630.39 842.937 629.866 842.062C629.861 841.989 629.863 841.916 629.85 841.845C629.848 841.838 629.539 840.484 629.528 840.462C628.575 838.418 600.172 813.05 596.173 809.71C591.913 805.881 587.684 802.046 583.591 798.036C592.164 787.659 599.931 776.545 609.315 766.867C613.532 762.326 616.973 756.805 620.708 751.86L646.497 717.528C646.189 684.03 647.365 650.471 647.946 616.976Z"/>
	<path fill="#1E1E1E" d="M647.946 616.976C651.279 623.999 654.031 637.454 656.283 645.412Q662.742 667.436 669.717 689.303C663.473 697.784 654.061 710.514 646.497 717.528C646.189 684.03 647.365 650.471 647.946 616.976Z"/>
	<path fill="#676767" d="M465.557 766.542L466.009 766.62C481.93 766.814 497.848 766.609 513.769 766.702Q561.542 767.102 609.315 766.867C599.931 776.545 592.164 787.659 583.591 798.036C587.684 802.046 591.913 805.881 596.173 809.71C589.866 810.579 585.651 812.682 580.45 816.189Q575.002 820.283 569.404 824.168C564.354 828.648 559.804 833.501 554.944 838.163C551.755 841.222 547.967 843.971 545.191 847.409C539.24 854.78 534.054 873.019 531.595 882.467C530.731 885.467 529.327 889.472 530.938 892.431C531.903 894.205 533.45 894.667 535.277 895.03C535.334 895.042 535.391 895.049 535.449 895.059L536.434 895.67L536.619 896.675C536.309 897.254 536.173 897.794 535.566 898.124C532.887 899.58 518.164 899.209 515.021 898.544C512.359 897.981 511.227 894.159 509.88 892.014C508.542 883.706 501.716 855.643 497.289 849.377C493.891 844.568 484.607 839.265 479.63 835.754C468.107 827.624 455.995 819.843 445.13 810.847L439.683 805.519C442.626 802.441 445.919 800.319 446.395 795.758C446.595 793.844 446.406 791.676 445.45 789.969C443.262 786.065 438.593 782.338 435.566 778.951C431.94 774.894 428.506 770.641 425.029 766.455L465.557 766.542Z"/>
	<path fill="#373535" d="M465.557 766.542L466.009 766.62C466.966 766.985 467.466 766.894 467.934 767.856C469.375 770.823 469.346 775.513 470.222 778.82C472.069 785.786 475.196 792.71 478.527 799.077C484.705 810.885 493.158 822.567 501.791 832.721C507.759 839.741 514.275 846.13 519.393 853.853C530.579 836.784 547.721 827.727 566.374 820.809C570.298 819.354 574.463 817.42 578.518 816.468Q579.47 816.235 580.45 816.189Q575.002 820.283 569.404 824.168C564.354 828.648 559.804 833.501 554.944 838.163C551.755 841.222 547.967 843.971 545.191 847.409C539.24 854.78 534.054 873.019 531.595 882.467C530.731 885.467 529.327 889.472 530.938 892.431C531.903 894.205 533.45 894.667 535.277 895.03C535.334 895.042 535.391 895.049 535.449 895.059L536.434 895.67L536.619 896.675C536.309 897.254 536.173 897.794 535.566 898.124C532.887 899.58 518.164 899.209 515.021 898.544C512.359 897.981 511.227 894.159 509.88 892.014C508.542 883.706 501.716 855.643 497.289 849.377C493.891 844.568 484.607 839.265 479.63 835.754C468.107 827.624 455.995 819.843 445.13 810.847L439.683 805.519C442.626 802.441 445.919 800.319 446.395 795.758C446.595 793.844 446.406 791.676 445.45 789.969C443.262 786.065 438.593 782.338 435.566 778.951C431.94 774.894 428.506 770.641 425.029 766.455L465.557 766.542Z"/>
	<path fill="#676767" d="M531.595 882.467C528.199 878.445 524.827 874.043 523.868 868.732C522.77 862.651 525.814 856.988 529.277 852.23C537.376 841.101 548.292 832.805 560.822 827.267C563.59 826.044 566.399 824.657 569.404 824.168C564.354 828.648 559.804 833.501 554.944 838.163C551.755 841.222 547.967 843.971 545.191 847.409C539.24 854.78 534.054 873.019 531.595 882.467Z"/>
	<path fill="#767676" d="M580.45 816.189C585.651 812.682 589.866 810.579 596.173 809.71C600.172 813.05 628.575 838.418 629.528 840.462C629.539 840.484 629.848 841.838 629.85 841.845C629.863 841.916 629.861 841.989 629.866 842.062C626.231 844.932 622.949 851.346 620.288 855.231C608.383 872.608 597.326 890.62 585.278 907.875C581.509 913.126 574.654 928.563 568.131 929.412C566.395 929.638 564.587 929.122 563.305 927.909C562.311 926.968 562.308 925.873 562.192 924.619C562.115 923.792 562.158 924.135 561.844 923.143C561.061 923.85 560.84 924.557 560.423 925.505C559.613 927.342 558.838 928.774 556.867 929.548C554.697 930.4 551.452 929.792 549.326 929.052C548.873 947.192 549.397 965.452 549.395 983.606L483.113 983.41C480.46 983.069 477.636 983.206 474.957 983.156C474.401 964.337 475.605 945.09 474.047 926.36C476.122 927.572 478.394 928.205 480.809 928.074C482.625 927.976 484.51 927.216 485.601 925.699C488.025 922.326 485.894 918.108 485.278 914.539L485.58 914.731C486.901 918.074 488.595 920.542 491.05 923.122L491.55 923.641C493.798 923.653 495.838 923.601 497.868 922.524C499.985 921.401 500.809 919.803 501.402 917.573C500.115 911.69 494.719 898.801 495.163 893.997C496.439 893.236 501.098 896.39 503.71 895.957C506.139 895.555 508.157 894.319 509.625 892.366C509.712 892.25 509.795 892.131 509.88 892.014C511.227 894.159 512.359 897.981 515.021 898.544C518.164 899.209 532.887 899.58 535.566 898.124C536.173 897.794 536.309 897.254 536.619 896.675L536.434 895.67L535.449 895.059C535.391 895.049 535.334 895.042 535.277 895.03C533.45 894.667 531.903 894.205 530.938 892.431C529.327 889.472 530.731 885.467 531.595 882.467C534.054 873.019 539.24 854.78 545.191 847.409C547.967 843.971 551.755 841.222 554.944 838.163C559.804 833.501 564.354 828.648 569.404 824.168Q575.002 820.283 580.45 816.189Z"/>
	<path fill="#1E1E1E" d="M535.449 895.059C535.571 894.98 535.695 894.904 535.816 894.822C540.687 891.547 539.364 883.942 542.1 881.237C542.488 882.057 542.503 882.782 542.213 883.653C542.115 883.945 541.727 884.694 541.609 884.94C540.05 888.187 532.461 912.851 532.397 915.852C530.754 918.407 530.722 920.645 530.585 923.605Q530.574 922.565 530.536 921.526C530.506 920.866 530.422 919.02 530.116 918.474C529.118 916.691 503.901 919.91 501.402 917.573C500.115 911.69 494.719 898.801 495.163 893.997C496.439 893.236 501.098 896.39 503.71 895.957C506.139 895.555 508.157 894.319 509.625 892.366C509.712 892.25 509.795 892.131 509.88 892.014C511.227 894.159 512.359 897.981 515.021 898.544C518.164 899.209 532.887 899.58 535.566 898.124C536.173 897.794 536.309 897.254 536.619 896.675L536.434 895.67L535.449 895.059Z"/>
	<path d="M532.397 915.852C533.568 917.818 534.568 919.372 536.957 919.878C539.54 920.425 542.872 920.015 545.056 918.455C548.319 916.125 550.563 901.612 553.041 901.248C553.756 905.226 545.929 919.381 546.323 923.701C546.528 925.95 547.929 927.413 549.326 929.052C548.873 947.192 549.397 965.452 549.395 983.606L483.113 983.41C480.46 983.069 477.636 983.206 474.957 983.156C474.401 964.337 475.605 945.09 474.047 926.36C476.122 927.572 478.394 928.205 480.809 928.074C482.625 927.976 484.51 927.216 485.601 925.699C488.025 922.326 485.894 918.108 485.278 914.539L485.58 914.731C486.901 918.074 488.595 920.542 491.05 923.122L491.55 923.641C493.798 923.653 495.838 923.601 497.868 922.524C499.985 921.401 500.809 919.803 501.402 917.573C503.901 919.91 529.118 916.691 530.116 918.474C530.422 919.02 530.506 920.866 530.536 921.526Q530.574 922.565 530.585 923.605C530.722 920.645 530.754 918.407 532.397 915.852Z"/>
	<path fill="#676767" d="M493.189 938.567L529.626 938.435L529.627 946.08L493.294 946.004L493.189 938.567Z"/>
	<path fill="#676767" d="M501.402 917.573C503.901 919.91 529.118 916.691 530.116 918.474C530.422 919.02 530.506 920.866 530.536 921.526Q530.574 922.565 530.585 923.605C530.538 924.984 530.806 925.894 529.878 926.972C525.067 927.454 496.021 927.835 493.334 926.206C492.561 925.737 491.972 924.422 491.55 923.641C493.798 923.653 495.838 923.601 497.868 922.524C499.985 921.401 500.809 919.803 501.402 917.573Z"/>
	<path d="M637.17 322.831L637.521 322.94C637.49 324.478 637.195 326.444 637.88 327.812C641.92 327.939 648.801 328.739 652.637 327.583C655.407 328.736 660.57 327.991 663.676 327.942C670.939 327.899 678.918 328.622 686.087 327.868C686.195 328.848 686.335 329.785 686.272 330.772C685.078 331.263 684.592 331.822 683.865 332.841C679.195 339.393 675.486 347.02 671.533 354.042C662.105 370.792 653.012 388.143 642.644 404.311C633.526 417.979 625.68 432.451 617.385 446.624C609.365 460.328 600.903 473.835 592.629 487.392Q549.253 558.201 503.792 627.69C491.709 646.352 480.98 666.024 467.786 683.954C466.039 677.853 465.607 671.278 464.318 665.041C460.897 648.48 455.447 630.92 447.415 616.044C456.464 603.477 464.502 590.257 472.816 577.202L500.463 534.507Q531.804 486.79 561.37 437.954C571.858 420.866 582.538 403.919 592.398 386.455C593.635 384.844 624.46 332.099 624.668 331.311C624.755 330.983 624.64 330.634 624.625 330.295C628.464 329.444 633.07 329.494 636.482 327.622C637.408 325.941 637.169 324.729 637.17 322.831Z"/>
	<path fill="#797979" d="M546.792 359.053C554.697 358.667 563.354 358.804 569.565 364.496C574.347 368.878 576.014 375.092 576.145 381.38C581.796 381.58 587.23 384.342 592.398 386.455C582.538 403.919 571.858 420.866 561.37 437.954Q531.804 486.79 500.463 534.507L472.816 577.202C464.502 590.257 456.464 603.477 447.415 616.044L447.236 616.05C442.485 606.195 439.697 594.465 436.157 584.04C425.554 552.824 413.375 521.355 409.549 488.407C406.285 460.291 409.556 430.322 424.359 405.668C428.772 398.317 434.265 391.843 439.574 385.148C441.593 384.273 443.681 383.613 445.767 382.92C445.344 381.042 445.036 379.183 445.126 377.249C445.37 372.014 447.635 367.066 451.663 363.675C457.544 358.723 464.903 358.544 472.141 359.242C480.433 363.212 503.151 393.767 512.815 402.358C515.395 398.539 518.861 395.015 521.762 391.411C526.574 385.433 530.958 379.099 535.694 373.055C539.338 368.404 543.558 363.99 546.792 359.053Z"/>
	<path fill="#050505" d="M546.792 359.053C554.697 358.667 563.354 358.804 569.565 364.496C574.347 368.878 576.014 375.092 576.145 381.38C574.044 387.567 569.918 393.576 566.808 399.335C559.492 412.887 551.981 426.371 545.15 440.176C538.618 433.56 532.908 426.165 526.88 419.097C522.254 413.673 517.134 408.433 512.801 402.789L512.815 402.358C515.395 398.539 518.861 395.015 521.762 391.411C526.574 385.433 530.958 379.099 535.694 373.055C539.338 368.404 543.558 363.99 546.792 359.053Z"/>
	<path fill="#050505" d="M445.767 382.92C445.344 381.042 445.036 379.183 445.126 377.249C445.37 372.014 447.635 367.066 451.663 363.675C457.544 358.723 464.903 358.544 472.141 359.242C480.433 363.212 503.151 393.767 512.815 402.358L512.801 402.789C508.984 404.606 484.061 435.179 479.235 440.596C475.284 433.67 471.572 426.604 467.523 419.735C463.245 412.478 458.643 405.412 454.387 398.142C451.441 393.11 448.811 387.893 445.767 382.92Z"/>
	<path fill="#676767" d="M439.683 805.519L445.13 810.847C455.995 819.843 468.107 827.624 479.63 835.754C484.607 839.265 493.891 844.568 497.289 849.377C501.716 855.643 508.542 883.706 509.88 892.014C509.795 892.131 509.712 892.25 509.625 892.366C508.157 894.319 506.139 895.555 503.71 895.957C501.098 896.39 496.439 893.236 495.163 893.997C494.719 898.801 500.115 911.69 501.402 917.573C500.809 919.803 499.985 921.401 497.868 922.524C495.838 923.601 493.798 923.653 491.55 923.641L491.05 923.122C488.595 920.542 486.901 918.074 485.58 914.731L485.278 914.539C485.894 918.108 488.025 922.326 485.601 925.699C484.51 927.216 482.625 927.976 480.809 928.074C478.394 928.205 476.122 927.572 474.047 926.36C475.605 945.09 474.401 964.337 474.957 983.156C477.636 983.206 480.46 983.069 483.113 983.41C469.707 984.193 455.825 983.357 442.353 983.395L351.466 983.503L317.975 983.58Q317.678 953.097 317.938 922.616L317.956 905.049C317.818 881.172 325.387 861.819 339.679 842.979C342.794 840.619 345.683 835.661 348.22 832.58C354.842 824.54 362.168 816.7 368.259 808.261C378.919 818.685 387.9 830.709 398.928 840.728C401.531 839.074 403.971 837.028 406.498 835.241C411.804 831.397 416.469 826.178 421.572 821.97C427.833 816.836 433.719 811.008 439.683 805.519Z"/>
	<path fill="#373535" d="M368.259 808.261C378.919 818.685 387.9 830.709 398.928 840.728C379.305 850.008 363.745 860.674 356.018 881.972Q354.517 886.177 353.551 890.537Q352.585 894.896 352.17 899.342C351.166 909.255 351.65 919.495 351.663 929.456C351.688 947.463 351.885 965.502 351.466 983.503L317.975 983.58Q317.678 953.097 317.938 922.616L317.956 905.049C317.818 881.172 325.387 861.819 339.679 842.979C342.794 840.619 345.683 835.661 348.22 832.58C354.842 824.54 362.168 816.7 368.259 808.261Z"/>
	<path fill="#767676" d="M439.683 805.519L445.13 810.847C455.995 819.843 468.107 827.624 479.63 835.754C484.607 839.265 493.891 844.568 497.289 849.377C501.716 855.643 508.542 883.706 509.88 892.014C509.795 892.131 509.712 892.25 509.625 892.366C508.157 894.319 506.139 895.555 503.71 895.957C501.098 896.39 496.439 893.236 495.163 893.997C494.719 898.801 500.115 911.69 501.402 917.573C500.809 919.803 499.985 921.401 497.868 922.524C495.838 923.601 493.798 923.653 491.55 923.641L491.05 923.122C488.595 920.542 486.901 918.074 485.58 914.731L485.278 914.539C485.894 918.108 488.025 922.326 485.601 925.699C484.51 927.216 482.625 927.976 480.809 928.074C478.394 928.205 476.122 927.572 474.047 926.36C473.485 925.093 472.846 924.124 472.042 923.008C471.722 923.565 471.821 923.297 471.679 923.914C471.403 925.109 471.161 926.268 470.096 927.055C469.149 927.755 468.164 927.963 467.047 927.559C464.486 926.632 460.975 921.149 459.165 918.892Q452.009 909.847 445.307 900.46Q438.605 891.073 432.374 881.368Q426.142 871.662 420.397 861.661Q414.651 851.661 409.405 841.389C408.337 839.408 407.453 837.281 406.498 835.241C411.804 831.397 416.469 826.178 421.572 821.97C427.833 816.836 433.719 811.008 439.683 805.519Z"/>
	<path fill="#797073" d="M439.683 805.519L445.13 810.847C439.805 817.055 432.873 821.42 426.694 826.704C421.168 831.43 415.726 837.805 409.405 841.389C408.337 839.408 407.453 837.281 406.498 835.241C411.804 831.397 416.469 826.178 421.572 821.97C427.833 816.836 433.719 811.008 439.683 805.519Z"/>
	<path fill="#4F494D" d="M368.259 808.261Q339.345 778.434 310.965 748.099C300.528 737.133 288.78 726.78 279.657 714.697C275.867 709.678 272.776 703.72 271.202 697.613C269.581 691.329 269.514 684.192 270.664 677.823C272.18 669.435 275.017 661.184 277.401 653.003L290.649 607.843Q303.624 561.24 317.626 514.934C323.61 494.978 327.944 474.183 338.575 456.028C360.937 417.837 397.76 395.976 439.574 385.148C434.265 391.843 428.772 398.317 424.359 405.668C409.556 430.322 406.285 460.291 409.549 488.407C413.375 521.355 425.554 552.824 436.157 584.04C439.697 594.465 442.485 606.195 447.236 616.05L447.415 616.044C455.447 630.92 460.897 648.48 464.318 665.041C465.607 671.278 466.039 677.853 467.786 683.954C466.859 685.418 465.793 686.887 464.982 688.412C465.873 702.152 465.482 716.135 465.545 729.908Q451.625 730.033 437.705 729.98C435.136 733.753 432.439 737.486 430.039 741.367C426.191 746.811 421.762 752.389 418.755 758.35C419.787 761.318 422.884 764.161 425.029 766.455C428.506 770.641 431.94 774.894 435.566 778.951C438.593 782.338 443.262 786.065 445.45 789.969C446.406 791.676 446.595 793.844 446.395 795.758C445.919 800.319 442.626 802.441 439.683 805.519C433.719 811.008 427.833 816.836 421.572 821.97C416.469 826.178 411.804 831.397 406.498 835.241C403.971 837.028 401.531 839.074 398.928 840.728C387.9 830.709 378.919 818.685 368.259 808.261Z"/>
	<path d="M351.858 683.144C354.606 676.627 356.503 669.5 358.647 662.761L369.407 629.443C371.477 623.151 373.383 616.013 376.55 610.183Q376.554 615.387 376.904 620.58C376.777 629.508 377.276 638.464 377.496 647.39Q377.983 667.645 378.212 687.904C378.332 695.892 379.204 704.537 378.366 712.431C369.582 702.601 360.296 693.306 351.858 683.144Z"/>
	<path fill="#372D34" d="M372.433 504.14C373.145 510.004 373.132 516.054 373.406 521.955C374.087 536.638 374.402 551.323 374.982 566.008L376.388 598.008C376.745 605.503 377.445 613.086 376.904 620.58Q376.554 615.387 376.55 610.183C373.383 616.013 371.477 623.151 369.407 629.443L358.647 662.761C356.503 669.5 354.606 676.627 351.858 683.144L351.033 682.094C349.914 672.801 350.783 662.84 351.561 653.529C353.436 631.087 357.497 609.218 360.48 586.938C364.16 559.447 366.155 531.209 372.433 504.14Z"/>
	<path d="M447.236 616.05L447.415 616.044C455.447 630.92 460.897 648.48 464.318 665.041C465.607 671.278 466.039 677.853 467.786 683.954C466.859 685.418 465.793 686.887 464.982 688.412C465.873 702.152 465.482 716.135 465.545 729.908Q451.625 730.033 437.705 729.98C435.136 733.753 432.439 737.486 430.039 741.367C426.191 746.811 421.762 752.389 418.755 758.35C416.023 757.226 387.756 722.6 382.83 717.139C389.844 707.503 395.717 697.207 402.149 687.198L447.236 616.05Z"/>
	<path fill="#797073" d="M464.982 688.412C465.873 702.152 465.482 716.135 465.545 729.908Q451.625 730.033 437.705 729.98C446.601 716.037 455.228 701.775 464.982 688.412Z"/>
	<path fill="#6E6E6E" d="M421.572 821.97L342.794 734.055C334.814 725.06 321.258 712.013 314.904 702.721C311.935 698.38 310.27 694.359 310.343 688.973C310.417 683.621 312.426 678.832 316.429 675.239C320.385 671.689 326.803 668.731 332.228 669.141C340.805 669.79 345.91 676.039 351.033 682.094L351.858 683.144C360.296 693.306 369.582 702.601 378.366 712.431C379.68 714.247 381.031 715.788 382.83 717.139C387.756 722.6 416.023 757.226 418.755 758.35C419.787 761.318 422.884 764.161 425.029 766.455C428.506 770.641 431.94 774.894 435.566 778.951C438.593 782.338 443.262 786.065 445.45 789.969C446.406 791.676 446.595 793.844 446.395 795.758C445.919 800.319 442.626 802.441 439.683 805.519C433.719 811.008 427.833 816.836 421.572 821.97Z"/>
</svg>
