<?xml version="1.0" encoding="utf-8" ?>
<svg xmlns="http://www.w3.org/2000/svg" xmlns:xlink="http://www.w3.org/1999/xlink" width="1024" height="1024">
	<path fill="#135D54" d="M0 0L1024 0L1024 1024L0 1024L0 0Z"/>
	<path d="M222.822 740.227C221.145 747.082 199.645 758.417 194.78 766.633C192.755 770.054 191.938 774.344 191.95 778.304C191.096 781.746 192.018 785.736 191.086 788.95C191.006 785.565 190.833 782.083 191.09 778.706C191.339 775.439 192.112 772.276 191.966 768.986C190.663 770.286 190.598 774 190.213 775.84C189.019 781.554 191.625 788.84 189.554 794.327C189.005 787.681 188.76 780.281 189.672 773.678C190.144 770.254 191.262 767.061 193.323 764.266C197.421 758.709 216.403 745.158 222.822 740.227Z"/>
	<path fill="#003234" d="M824.94 891.175C831.776 898.335 839.492 904.758 846.72 911.526C862.823 926.605 878.977 941.619 894.845 956.943C901.062 962.947 908.18 968.518 913.703 975.147C875.601 976.058 837.364 975.396 799.247 975.318L635.461 975.318L110.803 974.972C118.13 967.651 126.202 961.039 133.683 953.853C155.089 933.291 176.312 912.531 198.45 892.747C198.344 907.797 195.383 927.577 206.544 939.432C212.666 945.936 220.522 948.527 229.283 948.739C245.896 949.143 262.564 948.875 279.185 948.844L361.222 948.747L605.164 948.84L737.691 948.769L779.338 948.802C786.199 948.808 793.489 949.358 800.293 948.651C806.099 948.048 811.776 944.973 815.935 940.929C825.239 931.88 825.117 921.211 824.994 909.161Q824.839 900.168 824.94 891.175Z"/>
	<path d="M824.554 838.497C824.754 855.977 824.064 873.74 824.94 891.175Q824.839 900.168 824.994 909.161C825.117 921.211 825.239 931.88 815.935 940.929C811.776 944.973 806.099 948.048 800.293 948.651C793.489 949.358 786.199 948.808 779.338 948.802L737.691 948.769L605.164 948.84L361.222 948.747L279.185 948.844C262.564 948.875 245.896 949.143 229.283 948.739C220.522 948.527 212.666 945.936 206.544 939.432C195.383 927.577 198.344 907.797 198.45 892.747L198.539 843.748C201.274 846.877 202.626 852.559 204.488 856.365C210.727 869.119 222.175 881.409 233.978 889.123C243.017 895.031 252.32 897.968 263.089 898.775C276.678 899.793 290.76 899.019 304.403 898.956L375.807 898.96L627.594 899.124L717.505 898.973C730.451 898.977 755.128 900.243 766.55 897.748C787.338 893.208 805.458 873.381 815.783 855.773C818.807 850.617 821.01 843.818 824.124 839.127C824.265 838.915 824.411 838.707 824.554 838.497Z"/>
	<path d="M383.518 168.648L383.456 113.831C383.441 102.982 382.066 89.1877 384.61 78.73C386.157 72.3721 389.606 66.8245 394.093 62.1108C401.443 54.3894 410.236 51.1337 420.773 50.9605C462.309 50.2774 503.997 51.0981 545.551 51.0556L585.237 51.0126C592.756 51.0045 601.097 50.3452 608.51 51.5816Q609.981 51.8419 611.429 52.2102Q612.877 52.5784 614.293 53.0525Q615.71 53.5267 617.088 54.1041Q618.465 54.6816 619.797 55.3591Q621.128 56.0367 622.406 56.8108Q623.683 57.5848 624.9 58.4511Q626.117 59.3174 627.267 60.2712Q628.417 61.2249 629.493 62.261Q630.411 63.1507 631.265 64.1021Q632.119 65.0535 632.904 66.0619Q633.69 67.0704 634.403 68.131Q635.117 69.1917 635.755 70.2993Q636.393 71.407 636.953 72.5564Q637.512 73.7058 637.99 74.8913Q638.469 76.0768 638.863 77.2926Q639.258 78.5085 639.567 79.7489C641.831 88.9995 640.625 103.532 640.626 113.242L640.675 170.926C675.227 173.842 718.605 179.953 743.836 205.798C751.735 213.889 758.854 224.118 762.726 234.798C771.699 259.548 774.406 288.162 777.929 314.19C793.319 427.892 797.238 544.747 796.332 659.394C800.769 663.928 802.698 668.176 802.572 674.655C802.503 678.161 801.776 681.688 800.628 684.993C800.837 693.367 803.114 717.9 798.72 724.382C798.337 729.605 798.424 734.846 798.434 740.079C810.445 746.437 828.851 756.876 833.044 770.668C833.68 772.76 833.835 774.848 833.959 777.015C835.191 790.645 832.035 808.153 828.777 821.452C827.419 826.997 825.148 832.847 824.554 838.497C824.411 838.707 824.265 838.915 824.124 839.127C821.01 843.818 818.807 850.617 815.783 855.773C805.458 873.381 787.338 893.208 766.55 897.748C755.128 900.243 730.451 898.977 717.505 898.973L627.594 899.124L375.807 898.96L304.403 898.956C290.76 899.019 276.678 899.793 263.089 898.775C252.32 897.968 243.017 895.031 233.978 889.123C222.175 881.409 210.727 869.119 204.488 856.365C202.626 852.559 201.274 846.877 198.539 843.748C194.145 829.452 188.668 809.374 189.554 794.327C191.625 788.84 189.019 781.554 190.213 775.84C190.598 774 190.663 770.286 191.966 768.986C192.112 772.276 191.339 775.439 191.09 778.706C190.833 782.083 191.006 785.565 191.086 788.95C192.018 785.736 191.096 781.746 191.95 778.304C191.938 774.344 192.755 770.054 194.78 766.633C199.645 758.417 221.145 747.082 222.822 740.227C224.043 738.329 225.705 737.926 226.397 735.479L225.751 733.518C225.245 731.006 224.143 728.668 223.757 726.096C222.08 714.908 223.429 697.673 223.258 685.731C222.954 684.697 222.717 683.734 222.619 682.656C221.86 674.261 222.823 667.122 228.377 660.461Q227.739 637.616 227.621 614.762Q227.502 591.909 227.904 569.059Q228.305 546.208 229.226 523.373Q230.147 500.538 231.587 477.729Q233.027 454.921 234.985 432.151Q236.943 409.381 239.419 386.662Q241.895 363.943 244.886 341.285Q247.878 318.628 251.384 296.045C254.425 277.666 258.154 248.435 264.486 231.604C267.414 223.821 272.001 216.654 277.443 210.396C303.846 180.035 345.254 171.313 383.518 168.648Z"/>
	<path d="M438.36 363.132C437.333 364.518 437.762 403.035 437.213 408.762L436.701 408.705C436.304 407.897 436.091 406.895 436.015 405.999C435.637 401.535 436.049 396.738 436.065 392.243L436.141 362.311C436.169 340.666 435.23 318.665 436.252 297.061C436.383 294.278 436.924 291.834 437.747 289.192C437.947 297.604 436.602 314.522 438.375 321.796C438.526 335.554 438.643 349.379 438.36 363.132Z"/>
	<path d="M588.5 239C614.061 239.015 639.758 239.548 665.301 238.791C668.583 243.417 665.558 274.383 667.771 280.244C667.819 280.372 667.893 280.488 667.954 280.611L667.656 280.858L667.752 281.659C668.329 279.656 667.99 276.794 667.965 274.661C667.884 267.882 665.774 245.19 667.312 240.402C668.142 239.554 668.431 239.213 669.64 238.962C673.298 238.201 685.392 238.898 690.227 238.851C694.504 238.809 703.555 239.338 706.719 242.456L706.019 242.839C694.317 237.879 680.094 239.52 667.6 239.531C667.665 245.181 666.924 254.087 668.285 259.398Q668.523 266.006 668.654 272.616C668.497 288.55 669.656 304.467 669.564 320.399L669.129 325.347L668.894 314.324C668.807 318.476 669.091 323.054 668.028 327.082C667.282 311.773 668.747 292.583 666.646 277.941C666.298 271.149 666.258 264.311 666.068 257.51L665.54 239.607L589.367 240.039Q589.372 248.673 589.488 257.307C589.497 262.56 589.674 267.871 589.427 273.117C587.913 267.924 588.487 245.907 588.5 239Z"/>
	<path fill="#FFD642" d="M355.471 413.001Q395.199 413.439 434.929 413.245L434.997 423.921Q410.882 424.137 386.766 424.092C376.349 424.125 365.773 424.573 355.376 424.122C355.665 420.463 355.477 416.675 355.471 413.001Z"/>
	<path fill="#FFD642" d="M589.399 413.057L641.936 412.886C650.971 412.824 660.091 412.395 669.118 412.669L669.065 423.615C659.556 423.69 592.551 424.792 589.353 423.443L589.399 413.057Z"/>
	<path fill="#F9B900" d="M362.284 240.012L435.461 239.916L435.405 257.315L435.057 257.325C429.714 256.06 418.869 257 412.801 257.02L361.54 257.105C361.772 251.41 361.93 245.7 362.284 240.012Z"/>
	<path fill="#F9B900" d="M589.367 240.039L665.54 239.607L666.068 257.51C657.222 257.096 648.245 257.363 639.381 257.346L589.488 257.307Q589.372 248.673 589.367 240.039Z"/>
	<path fill="#FFD642" d="M589.488 257.307L639.381 257.346C648.245 257.363 657.222 257.096 666.068 257.51C666.258 264.311 666.298 271.149 666.646 277.941Q628.057 277.635 589.468 277.931C589.5 276.331 589.444 274.718 589.427 273.117C589.674 267.871 589.497 262.56 589.488 257.307Z"/>
	<path fill="#135D54" d="M438.462 412.993L585.548 412.93L585.571 424.003L438.441 424.108L438.462 412.993Z"/>
	<path fill="#F9B900" d="M435.517 675.443L435.499 703.996L361.495 704.026C359.35 702.867 357.235 701.764 354.978 700.826C354.889 693.571 354.698 686.301 354.762 679.046Q380.919 678.634 407.079 678.881C416.116 678.91 425.209 679.184 434.234 678.755C435.362 677.931 435.246 676.774 435.517 675.443Z"/>
	<path fill="#F9B900" d="M589.4 674.854C589.512 676.272 589.442 677.848 590.197 679.091C602.985 679.34 615.798 678.997 628.591 679.016C637.007 679.029 645.794 679.628 654.16 678.942C656.448 678.754 658.86 678.279 660.907 677.197C664.997 675.034 667.652 668.487 668.447 664.079C669.963 655.675 668.903 638.559 668.897 629.319L668.894 552.232C668.897 548.459 668.077 535.727 669.153 533.029C669.21 532.885 669.3 532.758 669.374 532.622C670.44 555.303 669.391 578.965 669.399 601.78C669.412 635.673 670.107 669.628 669.415 703.505L619.137 703.578C609.296 703.591 599.369 703.326 589.541 703.812C589.192 694.544 588.239 684.054 589.4 674.854Z"/>
	<path fill="#313131" d="M224.912 686.053Q250.946 685.839 276.979 686.049L279.161 686.108C278.077 695.539 279.106 705.198 278.714 714.67L277.092 715.869C270.587 719.482 264.634 724.42 258.611 728.775C248.774 728.179 235.029 730.017 225.959 728.132C223.691 724.601 224.84 692.358 224.912 686.053Z"/>
	<path fill="#121212" d="M276.979 686.049L279.161 686.108C278.077 695.539 279.106 705.198 278.714 714.67L277.092 715.869Q276.934 700.959 276.979 686.049Z"/>
	<path fill="#003234" d="M459.622 239.95C474.216 240.463 488.947 240.047 503.555 240.058L586.387 240.045C586.394 251.102 587.3 264.31 586.104 275.157C585.696 269.14 585.96 263.023 586.008 256.994L438.454 256.854L438.353 240.414C441.755 239.11 455.129 240.074 459.622 239.95Z"/>
	<path fill="#ECAC00" d="M268.856 547.849L269.015 548.428C271.427 557.519 272.221 566.88 275.031 575.928C277.921 585.237 300.695 637.648 306.635 642.197L307.198 642.038C310.586 649.447 312.19 657.874 315.168 665.522C317.375 671.191 319.6 676.944 322.342 682.379C324.386 686.43 326.915 690.29 328.818 694.4C321.576 694.417 313.476 696.7 307.147 700.363C305.073 700.966 303.048 701.996 301.063 702.853C284.173 666.289 270.845 606.261 268.698 566.24C268.399 560.669 267.333 553.229 268.856 547.849Z"/>
	<path fill="#FFC300" d="M668.654 272.616C669.406 274.109 669.156 276.333 669.166 278.005Q682.704 278.129 696.242 278.093C700.42 278.087 705.243 278.542 709.33 277.738L709.824 277.125C711.041 284.006 710.428 296.944 711.859 301.963C700.613 313.023 686.583 345.706 682.831 361.473C678.439 370.234 676.267 386.683 674.421 396.656C673.752 400.27 673.305 404.163 672.058 407.619Q671.553 379.572 670.756 351.531C670.47 341.244 670.622 330.631 669.564 320.399C669.656 304.467 668.497 288.55 668.654 272.616Z"/>
	<path fill="#FFC300" d="M317.244 276.55C318.138 277.512 318.683 277.653 320.003 277.739C331.125 278.463 346.082 277.542 357.642 277.584L353.975 370.651C353.398 384.528 353.877 398.82 352.269 412.589C350.336 399.209 348.7 377.542 343.156 365.465C339.077 346.465 325.321 316.071 312.035 302.175Q311.98 301.168 312.007 300.159C312.1 296.188 314.898 278.754 317.244 276.55Z"/>
	<path fill="#135D54" d="M438.454 256.854L586.008 256.994C585.96 263.023 585.696 269.14 586.104 275.157L586.149 278.071Q512.304 278.629 438.458 278.363L438.454 256.854Z"/>
	<path fill="#135D54" d="M267.875 804.921L348.077 804.901C362.345 804.876 376.702 805.213 390.953 804.668C389.509 809.681 388.835 814.541 388.599 819.745C388.3 823.496 388.335 827.217 388.372 830.977L262.916 830.967C262.607 826.921 262.604 822.924 262.651 818.868C264.027 813.98 265.228 809.316 267.875 804.921Z"/>
	<path fill="#003234" d="M585.563 679.037C585.521 668.297 584.486 651.875 585.909 641.734C586.272 662.333 585.854 682.948 586.006 703.551L438.471 703.594L438.47 679.119C487.461 678.458 536.561 679.047 585.563 679.037Z"/>
	<path fill="#135D54" d="M394.309 804.522C402.353 805.25 410.724 804.838 418.807 804.845L461.268 804.873L572.269 804.922C592.48 804.911 612.814 804.431 633.013 804.976L633.076 830.972Q512.844 831.646 392.612 831.017C392.647 826.425 392.753 821.827 392.426 817.243C392.157 812.98 392.918 808.541 394.309 804.522Z"/>
	<defs>
		<linearGradient id="gradient_0" gradientUnits="userSpaceOnUse" x1="221.96703" y1="532.14001" x2="300.2363" y2="517.20886">
			<stop offset="0" stop-color="#204545"/>
			<stop offset="1" stop-color="#9C9C9C"/>
		</linearGradient>
	</defs>
	<path fill="url(#gradient_0)" d="M244.919 657.077C244.892 635.715 244.346 614.368 244.606 593.001Q245.736 506.437 253.781 420.241C256.679 389.352 259.817 358.378 264.857 327.753C266.989 332.711 266.814 339.365 267.745 344.727C269.839 356.794 272.381 368.818 274.713 380.843C275.837 386.641 276.527 392.826 277.995 398.511C278.216 399.366 278.467 399.922 279.196 400.436C277.435 409.847 276.054 419.304 274.653 428.774C273.973 433.375 272.864 438.258 272.674 442.891C273.558 445.757 271.192 450.412 272.993 452.4C272.672 458.888 270.322 464.975 270.043 471.468L270.008 472.156C269.882 473.462 269.505 474.131 268.869 475.244L268.209 475.406L267.978 474.827C268.123 474.532 268.274 474.24 268.413 473.942C268.978 472.738 268.934 471.863 268.882 470.559L268.643 470.35C267.71 474.34 267.613 478.465 266.955 482.506L266.181 482.972C264.88 492.169 264.459 501.532 264.06 510.803Q263.861 516.251 263.786 521.702Q263.711 527.153 263.76 532.605Q263.809 538.056 263.982 543.505Q264.155 548.954 264.452 554.398Q264.748 559.841 265.169 565.277Q265.589 570.712 266.133 576.136Q266.677 581.561 267.344 586.972Q268.011 592.382 268.8 597.776Q269.59 603.171 270.503 608.545Q271.415 613.92 272.449 619.273Q273.483 624.625 274.639 629.953Q275.794 635.281 277.071 640.581Q278.347 645.881 279.744 651.151Q281.14 656.421 282.656 661.657Q284.172 666.894 285.807 672.095Q287.442 677.296 289.194 682.458C291.741 689.719 295.018 696.807 298.082 703.866C291.684 707.404 285.284 711.508 278.714 714.67C279.106 705.198 278.077 695.539 279.161 686.108L276.979 686.049Q250.946 685.839 224.912 686.053L223.258 685.731C222.954 684.697 222.717 683.734 222.619 682.656C221.86 674.261 222.823 667.122 228.377 660.461L230.377 658.482C234.421 656.823 237.801 656.877 242.073 657.029L244.919 657.077Z"/>
	<path d="M272.674 442.891C273.558 445.757 271.192 450.412 272.993 452.4C272.672 458.888 270.322 464.975 270.043 471.468L270.008 472.156C269.882 473.462 269.505 474.131 268.869 475.244L268.209 475.406L267.978 474.827C268.123 474.532 268.274 474.24 268.413 473.942C268.978 472.738 268.934 471.863 268.882 470.559L268.643 470.35C267.71 474.34 267.613 478.465 266.955 482.506L266.181 482.972C266.3 477.604 267.623 471.884 268.519 466.589C269.857 458.687 271.114 450.753 272.674 442.891Z"/>
	<path d="M244.919 657.077C252.627 657.392 261.755 657.941 269.317 656.472C274.286 658.634 277.153 660.471 279.85 665.354C279.876 669.784 280.705 682.469 279.161 686.108L276.979 686.049Q250.946 685.839 224.912 686.053L223.258 685.731C222.954 684.697 222.717 683.734 222.619 682.656C221.86 674.261 222.823 667.122 228.377 660.461L230.377 658.482C234.421 656.823 237.801 656.877 242.073 657.029L244.919 657.077Z"/>
	<path fill="#F9B900" d="M279.196 400.436C283.786 373.356 287.876 345.832 291.094 318.556Q292.304 308.451 292.479 298.275C292.716 285.953 291.342 272.757 296.634 261.242C300.887 251.986 309.409 243.158 319.042 239.596L319.835 240.486C320.091 240.396 320.344 240.301 320.601 240.215C321.804 239.815 323 239.872 324.25 239.897L324.562 240.083L324.531 240.367L325.382 240.843C334.637 238.639 349.47 239.6 359.25 239.739C359.262 245.393 359.38 251.455 358.656 257.063C358.309 263.865 358.305 270.818 357.642 277.584C346.082 277.542 331.125 278.463 320.003 277.739C318.683 277.653 318.138 277.512 317.244 276.55C314.898 278.754 312.1 296.188 312.007 300.159Q311.98 301.168 312.035 302.175C310.843 301.675 309.951 301.023 308.658 301.27C309.499 302.618 310.465 303.448 311.685 304.453C312.033 315.102 310.36 326.058 309.008 336.602Q305.854 360.844 302.092 385Q298.531 410.413 294.372 435.735C292.229 448.972 289.663 462.257 288.498 475.623C285.048 515.225 289.84 555.925 296.674 594.925C299.455 610.79 302.432 626.631 307.198 642.038L306.635 642.197C300.695 637.648 277.921 585.237 275.031 575.928C272.221 566.88 271.427 557.519 269.015 548.428L268.856 547.849Q267.389 518.089 269.584 488.373L269.013 487.923C268.674 484.224 270.301 474.453 271.056 470.542C271.694 467.237 272.934 464.052 272.742 460.646L272.238 460.93C271.834 464.847 271.086 468.376 270.008 472.156L270.043 471.468C270.322 464.975 272.672 458.888 272.993 452.4C271.192 450.412 273.558 445.757 272.674 442.891C272.864 438.258 273.973 433.375 274.653 428.774C276.054 419.304 277.435 409.847 279.196 400.436Z"/>
	<path fill="#ECAC00" d="M272.993 452.4L273.693 453.643L274.285 453.523C274.452 452.041 274.579 450.622 275.223 449.256C275.362 448.961 275.512 448.671 275.656 448.379C275.483 451.25 269.907 487.859 269.584 488.373L269.013 487.923C268.674 484.224 270.301 474.453 271.056 470.542C271.694 467.237 272.934 464.052 272.742 460.646L272.238 460.93C271.834 464.847 271.086 468.376 270.008 472.156L270.043 471.468C270.322 464.975 272.672 458.888 272.993 452.4Z"/>
	<path fill="#FFD642" d="M317.244 276.55C317.597 270.906 318.345 265.855 322.674 261.752C330.303 254.521 348.515 256.937 358.656 257.063C358.309 263.865 358.305 270.818 357.642 277.584C346.082 277.542 331.125 278.463 320.003 277.739C318.683 277.653 318.138 277.512 317.244 276.55Z"/>
	<defs>
		<linearGradient id="gradient_1" gradientUnits="userSpaceOnUse" x1="334.19662" y1="343.06412" x2="262.47598" y2="349.77927">
			<stop offset="0" stop-color="black"/>
			<stop offset="1" stop-color="#DAC600"/>
		</linearGradient>
	</defs>
	<path fill="url(#gradient_1)" d="M279.196 400.436C283.786 373.356 287.876 345.832 291.094 318.556Q292.304 308.451 292.479 298.275C292.716 285.953 291.342 272.757 296.634 261.242C300.887 251.986 309.409 243.158 319.042 239.596L319.835 240.486C320.091 240.396 320.344 240.301 320.601 240.215C321.804 239.815 323 239.872 324.25 239.897L324.562 240.083L324.531 240.367L325.382 240.843C313.766 245.172 306.017 251.615 300.861 263.102C294.943 276.289 297.44 299.645 296.105 314.891C292.887 351.644 285.803 388.156 279.814 424.526C279.154 428.534 277.131 445.804 275.656 448.379C275.512 448.671 275.362 448.961 275.223 449.256C274.579 450.622 274.452 452.041 274.285 453.523L273.693 453.643L272.993 452.4C271.192 450.412 273.558 445.757 272.674 442.891C272.864 438.258 273.973 433.375 274.653 428.774C276.054 419.304 277.435 409.847 279.196 400.436Z"/>
	<path fill="#FFC300" d="M590.464 707.464C614.712 707.936 638.988 707.353 663.24 707.516C675.106 717.128 685.954 727.84 696.939 738.429C709.234 750.28 721.734 762.256 733.343 774.774C741.59 783.667 749.25 793.192 757.609 801.954C743.631 801.68 636.809 802.267 634.411 801.26L634.752 800.835L634.368 800.904C630.29 792.259 626.759 783.353 622.775 774.66Q607.144 740.81 590.464 707.464Z"/>
	<path fill="#003234" d="M289.225 712.237L291.631 710.942C309.16 701.548 321.504 693.98 341.672 700.067C347.812 702.041 354.279 703.764 360.215 706.266C334.575 728.667 309.331 752.189 286.39 777.357C279.392 785.035 271.851 792.893 266.092 801.564C263.21 805.903 260.248 811.328 259.853 816.601C257.918 822.853 259.271 834.2 259.264 840.928L259.108 876.057C248.694 873.373 239.582 867.612 232.153 859.871C218.392 845.53 213.961 825.905 214.367 806.556C214.776 787.054 222.337 768.78 235.21 754.208C240.064 748.713 245.549 743.868 250.832 738.8C254.5 736.797 258.24 733.058 261.578 730.468C270.21 723.771 279.365 717.025 289.225 712.237Z"/>
	<path fill="#135D54" d="M289.225 712.237L291.631 710.942C309.16 701.548 321.504 693.98 341.672 700.067C341.43 700.301 341.192 700.538 340.947 700.769C337.57 703.954 332.841 706.501 328.981 709.119Q319.603 715.4 310.862 722.542C284.371 744.355 260.589 772.055 245.09 802.805C241.154 810.615 238.342 818.719 234.853 826.704C227.883 818.318 225.838 809.052 226.807 798.314C229.011 773.896 243.904 754.587 260.632 737.877C264.472 734.04 268.282 729.851 272.495 726.445C276.574 723.147 288.267 716.586 290.679 712.713C290.257 712.586 289.596 712.46 289.225 712.237Z"/>
	<path fill="#FFC300" d="M363.406 707.838C376.487 707.366 389.774 707.889 402.874 707.866C413.838 707.846 425.024 707.21 435.963 707.778L436.545 708.453L436.193 709.803L436.933 710.126C433.116 720.351 427.592 730.094 422.947 739.975C413.377 760.333 403.916 780.675 395.222 801.426L392.365 801.123C388.215 802.313 365.973 801.492 359.253 801.512C329.638 801.599 299.936 802.244 270.333 801.628C286.148 780.281 308.404 758.813 327.782 740.515C339.482 729.468 351.163 718.286 363.406 707.838Z"/>
	<path d="M436.193 709.803L436.933 710.126C433.116 720.351 427.592 730.094 422.947 739.975C413.377 760.333 403.916 780.675 395.222 801.426L392.365 801.123C405.421 769.796 421.159 740.181 436.193 709.803Z"/>
	<path fill="#FFC300" d="M589.468 277.931Q628.057 277.635 666.646 277.941C668.747 292.583 667.282 311.773 668.028 327.082C667.226 337.643 668.281 348.825 668.565 359.447Q669.196 384.613 669.346 409.787C642.662 408.939 615.735 409.574 589.026 409.542Q588.547 343.735 589.468 277.931Z"/>
	<path fill="#FFC300" d="M361.54 257.105L412.801 257.02C418.869 257 429.714 256.06 435.057 257.325L435.405 257.315L435.606 367.592C435.522 381.549 435.666 395.555 435.245 409.505C408.702 409.551 382.101 409.256 355.566 409.835Q357.073 358.393 359.397 306.981C359.691 300.515 359.57 281.46 360.833 276.667Q361.358 266.892 361.54 257.105Z"/>
	<path fill="#FFD642" d="M361.54 257.105L412.801 257.02C418.869 257 429.714 256.06 435.057 257.325L434.964 277.957L386.286 277.673C378.151 277.645 369.599 278.168 361.51 277.469L360.833 276.667Q361.358 266.892 361.54 257.105Z"/>
	<path fill="#FFD642" d="M230.377 658.482C230.201 638.227 229.627 618.016 229.767 597.75Q229.729 560.669 231.103 523.614Q232.478 486.559 235.263 449.583Q238.049 412.607 242.241 375.763Q246.434 338.921 252.027 302.264Q255.519 279.011 259.95 255.919C261.626 247.59 263.159 238.811 266.466 230.954Q267.566 228.398 268.873 225.942Q270.181 223.486 271.688 221.147Q273.194 218.808 274.889 216.602Q276.585 214.395 278.457 212.337C303.838 183.993 346.643 172.799 383.439 170.746C383.256 173.391 383.217 176.043 383.151 178.693C383.834 181.228 385.373 184.98 384.676 187.5C387.749 195.491 395.304 202.77 403.134 206.121C411.348 209.635 434.02 208.384 443.512 208.111C443.866 216.518 444.373 229.525 443.259 237.638C441.858 238.102 440.695 238.045 439.25 237.983L365.903 237.831C353.186 237.793 340.2 237.04 327.516 237.879C324.628 238.07 321.712 238.408 319.042 239.596C309.409 243.158 300.887 251.986 296.634 261.242C291.342 272.757 292.716 285.953 292.479 298.275Q292.304 308.451 291.094 318.556C287.876 345.832 283.786 373.356 279.196 400.436C278.467 399.922 278.216 399.366 277.995 398.511C276.527 392.826 275.837 386.641 274.713 380.843C272.381 368.818 269.839 356.794 267.745 344.727C266.814 339.365 266.989 332.711 264.857 327.753C259.817 358.378 256.679 389.352 253.781 420.241Q245.736 506.437 244.606 593.001C244.346 614.368 244.892 635.715 244.919 657.077L242.073 657.029C237.801 656.877 234.421 656.823 230.377 658.482Z"/>
	<path d="M383.151 178.693C383.834 181.228 385.373 184.98 384.676 187.5C381.964 186.778 376.724 188.36 373.821 188.812C351.064 192.356 328.207 197.438 308.097 209.176C302.576 212.399 297.83 216.394 293.147 220.718L293.05 220.124C290.961 220.255 286.958 227.488 284.715 229.036C286.555 226.435 288.356 223.826 290.471 221.438L292.57 219.06L292.303 218.18C307.057 199.762 341.945 190.687 364.668 186.426C370.642 185.305 376.982 185.323 382.821 183.761C383.548 182.392 383.205 180.238 383.151 178.693Z"/>
	<path d="M292.303 218.18L292.57 219.06L290.471 221.438C288.356 223.826 286.555 226.435 284.715 229.036C286.958 227.488 290.961 220.255 293.05 220.124L293.147 220.718C288.462 226.089 284.401 231.642 281.734 238.299C277.841 248.012 276.576 259.343 274.628 269.618C270.976 288.882 267.216 308.276 264.857 327.753C259.817 358.378 256.679 389.352 253.781 420.241Q245.736 506.437 244.606 593.001C244.346 614.368 244.892 635.715 244.919 657.077L242.073 657.029C242.118 618.968 241.018 581.071 242.727 543.006Q245.394 476.823 251.591 410.877Q256.821 358.165 265.55 305.918Q268.677 285.483 272.869 265.24C274.736 255.783 276.305 245.971 279.788 236.945C282.463 230.014 286.807 223.199 292.303 218.18Z"/>
	<path d="M293.147 220.718C297.83 216.394 302.576 212.399 308.097 209.176C328.207 197.438 351.064 192.356 373.821 188.812C376.724 188.36 381.964 186.778 384.676 187.5C387.749 195.491 395.304 202.77 403.134 206.121C411.348 209.635 434.02 208.384 443.512 208.111C443.866 216.518 444.373 229.525 443.259 237.638C441.858 238.102 440.695 238.045 439.25 237.983L365.903 237.831C353.186 237.793 340.2 237.04 327.516 237.879C324.628 238.07 321.712 238.408 319.042 239.596C309.409 243.158 300.887 251.986 296.634 261.242C291.342 272.757 292.716 285.953 292.479 298.275Q292.304 308.451 291.094 318.556C287.876 345.832 283.786 373.356 279.196 400.436C278.467 399.922 278.216 399.366 277.995 398.511C276.527 392.826 275.837 386.641 274.713 380.843C272.381 368.818 269.839 356.794 267.745 344.727C266.814 339.365 266.989 332.711 264.857 327.753C267.216 308.276 270.976 288.882 274.628 269.618C276.576 259.343 277.841 248.012 281.734 238.299C284.401 231.642 288.462 226.089 293.147 220.718Z"/>
	<path fill="#004C51" d="M711.859 301.963L714.252 301.539C715.298 302.352 715.125 302.929 715.289 304.224C716.677 315.18 715.42 326.804 716.241 337.868C716.48 341.151 716.634 344.473 717.094 347.733L715.275 350.428C718.452 373.748 723.548 396.906 727.168 420.18Q730.62 442.981 732.18 465.99Q733.739 488.998 733.395 512.057C732.974 530.148 731.115 548.323 728.76 566.255C727.665 574.602 725.461 584.183 725.154 592.43C718.537 630.328 710.731 663.771 693.261 698.315C685.743 698.49 679.84 699.774 673.185 703.367C671.996 694.204 673.025 680.712 672.993 671.096L672.793 596.23L672.503 486.299C672.462 464.853 671.55 443.031 673.27 421.658C674.256 409.415 676.351 397.077 678.955 385.083C680.141 379.623 681.79 374.254 682.817 368.764C682.063 365.015 687.328 351.046 689.077 347.173C691.423 341.983 693.07 336.62 695.601 331.475C690.65 336.831 690.808 344.597 687.091 350.49C685.089 353.665 685.139 358.08 683.452 361.53L682.831 361.473C686.583 345.706 700.613 313.023 711.859 301.963Z"/>
	<path d="M711.859 301.963L714.252 301.539C715.298 302.352 715.125 302.929 715.289 304.224C716.677 315.18 715.42 326.804 716.241 337.868C716.48 341.151 716.634 344.473 717.094 347.733L715.275 350.428C714.917 347.671 714.591 344.981 714.542 342.198C713.369 329.558 713.371 316.655 713.074 303.96C698.014 322.606 689.915 346.205 682.817 368.764C682.063 365.015 687.328 351.046 689.077 347.173C691.423 341.983 693.07 336.62 695.601 331.475C690.65 336.831 690.808 344.597 687.091 350.49C685.089 353.665 685.139 358.08 683.452 361.53L682.831 361.473C686.583 345.706 700.613 313.023 711.859 301.963Z"/>
	<path fill="#FFC300" d="M588.448 707.292L590.464 707.464Q607.144 740.81 622.775 774.66C626.759 783.353 630.29 792.259 634.368 800.904C633.304 801.117 632.308 801.304 631.284 801.676L630.939 801.602C611.609 801.109 592.167 801.509 572.826 801.509L460.13 801.523C438.502 801.535 416.844 801.826 395.222 801.426C403.916 780.675 413.377 760.333 422.947 739.975C427.592 730.094 433.116 720.351 436.933 710.126L437.817 708.043C440.608 706.779 457.273 707.594 461.552 707.584L545.512 707.489C558.573 707.499 575.816 708.428 588.448 707.292Z"/>
	<path d="M588.448 707.292L590.464 707.464Q607.144 740.81 622.775 774.66C626.759 783.353 630.29 792.259 634.368 800.904C633.304 801.117 632.308 801.304 631.284 801.676L630.939 801.602C631.15 800.565 631.265 801.003 630.816 800.286C626.572 793.497 623.679 785.922 620.492 778.599C615.067 766.137 609.865 753.519 604.136 741.197C599.005 730.162 592.059 718.884 588.448 707.292Z"/>
	<defs>
		<linearGradient id="gradient_2" gradientUnits="userSpaceOnUse" x1="282.34402" y1="513.95496" x2="358.51917" y2="498.68347">
			<stop offset="0" stop-color="#003336"/>
			<stop offset="1" stop-color="#005F5E"/>
		</linearGradient>
	</defs>
	<path fill="url(#gradient_2)" d="M311.685 304.453C310.465 303.448 309.499 302.618 308.658 301.27C309.951 301.023 310.843 301.675 312.035 302.175C325.321 316.071 339.077 346.465 343.156 365.465L342.554 365.495C342.075 363.962 341.62 362.45 341.256 360.885C339.283 352.401 334.709 344.247 332.116 335.919L332.121 335.947L331.573 336.191L331.232 335.245C331.166 336.316 331.18 336.27 331.617 337.16C333.28 340.544 334.403 344.206 335.958 347.648C337.772 351.663 341.842 363.147 341.213 367.116C342.647 374.057 344.564 380.902 345.864 387.87C348.235 400.578 349.625 413.874 350.63 426.765C351.633 439.638 351.073 452.867 351.076 465.781L351.183 532.726C351.314 577.851 352.086 623.182 351.015 668.295L350.964 675.451C351.285 683.565 351.109 691.708 351.053 699.827L351.555 700.371C349.249 700.763 334.088 694.687 328.801 694.508C324.753 694.37 318.345 696.4 314.596 697.931C312.252 698.888 310.032 700.31 307.5 700.737L307.147 700.363C313.476 696.7 321.576 694.417 328.818 694.4C326.915 690.29 324.386 686.43 322.342 682.379C319.6 676.944 317.375 671.191 315.168 665.522C312.19 657.874 310.586 649.447 307.198 642.038C302.432 626.631 299.455 610.79 296.674 594.925C289.84 555.925 285.048 515.225 288.498 475.623C289.663 462.257 292.229 448.972 294.372 435.735Q298.531 410.413 302.092 385Q305.854 360.844 309.008 336.602C310.36 326.058 312.033 315.102 311.685 304.453Z"/>
	<path fill="#135D54" d="M345.643 651.143C346.731 656.143 346.878 663.466 349.791 667.643L351.015 668.295L350.964 675.451L350.015 674.987C347.931 670.67 343.382 656.32 342.767 651.499L343.459 651.837L343.225 652.653C344.612 655.646 344.687 660.135 346.689 662.553C347.385 659.085 345.385 654.818 345.643 651.143Z"/>
	<path d="M311.685 304.453C310.465 303.448 309.499 302.618 308.658 301.27C309.951 301.023 310.843 301.675 312.035 302.175C325.321 316.071 339.077 346.465 343.156 365.465L342.554 365.495C342.075 363.962 341.62 362.45 341.256 360.885C339.283 352.401 334.709 344.247 332.116 335.919L332.121 335.947L331.573 336.191L331.232 335.245C331.166 336.316 331.18 336.27 331.617 337.16C333.28 340.544 334.403 344.206 335.958 347.648C337.772 351.663 341.842 363.147 341.213 367.116C336.965 353.063 332.478 339.831 325.584 326.782C322.042 319.711 318.197 312.816 313.205 306.646C312.178 330.231 308.476 353.381 304.977 376.69C302.8 391.196 301.034 405.747 298.633 420.221C295.826 437.142 292.46 454.286 290.731 471.35C284.573 532.124 298.481 642.049 331.084 694.3C337.929 695.521 344.648 697.016 351.053 699.827L351.555 700.371C349.249 700.763 334.088 694.687 328.801 694.508C324.753 694.37 318.345 696.4 314.596 697.931C312.252 698.888 310.032 700.31 307.5 700.737L307.147 700.363C313.476 696.7 321.576 694.417 328.818 694.4C326.915 690.29 324.386 686.43 322.342 682.379C319.6 676.944 317.375 671.191 315.168 665.522C312.19 657.874 310.586 649.447 307.198 642.038C302.432 626.631 299.455 610.79 296.674 594.925C289.84 555.925 285.048 515.225 288.498 475.623C289.663 462.257 292.229 448.972 294.372 435.735Q298.531 410.413 302.092 385Q305.854 360.844 309.008 336.602C310.36 326.058 312.033 315.102 311.685 304.453Z"/>
	<path fill="#003234" d="M325.584 326.782C332.478 339.831 336.965 353.063 341.213 367.116C342.647 374.057 344.564 380.902 345.864 387.87C348.235 400.578 349.625 413.874 350.63 426.765C351.633 439.638 351.073 452.867 351.076 465.781L351.183 532.726C351.314 577.851 352.086 623.182 351.015 668.295L349.791 667.643C346.878 663.466 346.731 656.143 345.643 651.143C346.337 643.923 343.019 631.252 341.926 623.452Q338.264 598.114 335.906 572.621C330.631 508.738 331.709 444.459 328.777 380.449C328.226 368.423 327.189 356.359 326.075 344.372C325.686 340.184 323.89 332.688 324.492 328.804C324.569 328.307 325.319 327.272 325.584 326.782Z"/>
	<path fill="#004C51" d="M438.458 278.363Q512.304 278.629 586.149 278.071L585.635 409.447L438.424 409.392C438.428 394.676 439.245 377.532 438.36 363.132C438.643 349.379 438.526 335.554 438.375 321.796L438.458 278.363Z"/>
	<path fill="#FFC300" d="M589.4 674.854L589.32 499.571L589.099 450.725C589.057 441.677 588.669 432.466 589.353 423.443C592.551 424.792 659.556 423.69 669.065 423.615C669.784 459.894 669.526 496.33 669.374 532.622C669.3 532.758 669.21 532.885 669.153 533.029C668.077 535.727 668.897 548.459 668.894 552.232L668.897 629.319C668.903 638.559 669.963 655.675 668.447 664.079C667.652 668.487 664.997 675.034 660.907 677.197C658.86 678.279 656.448 678.754 654.16 678.942C645.794 679.628 637.007 679.029 628.591 679.016C615.798 678.997 602.985 679.34 590.197 679.091C589.442 677.848 589.512 676.272 589.4 674.854Z"/>
	<path fill="#FFC300" d="M434.997 423.921C436.121 507.758 434.851 591.608 435.517 675.443C435.246 676.774 435.362 677.931 434.234 678.755C425.209 679.184 416.116 678.91 407.079 678.881Q380.919 678.634 354.762 679.046C355.206 653.148 354.579 627.217 354.518 601.315Q354.364 546.923 354.99 492.536L354.954 449.398C354.933 441.094 354.39 432.362 355.376 424.122C365.773 424.573 376.349 424.125 386.766 424.092Q410.882 424.137 434.997 423.921Z"/>
	<path fill="#004C51" d="M438.441 424.108L585.571 424.003L585.91 560.569C585.944 587.611 586.297 614.697 585.909 641.734C584.486 651.875 585.521 668.297 585.563 679.037C536.561 679.047 487.461 678.458 438.47 679.119L438.441 424.108Z"/>
	<path d="M706.272 674.41L707.522 674.022C722.673 656.934 738.869 627.186 746.525 605.806C750.676 594.215 753.611 581.784 755.622 569.652C756.528 571.014 756.72 571.867 756.979 573.471C757.12 574.341 757.05 573.999 757.496 574.96L759.131 574.392C757.113 607.388 738.231 675.653 722.734 705.053Q735.404 709.663 747.156 716.271L748.727 717.271C750.906 718.333 758.395 722.041 759.356 724.147C760.662 724.234 762.148 724.505 763.425 724.228C774.756 724.39 786.172 724.798 797.489 724.154C798.215 724.113 797.946 724.109 798.72 724.382C798.337 729.605 798.424 734.846 798.434 740.079C810.445 746.437 828.851 756.876 833.044 770.668C833.68 772.76 833.835 774.848 833.959 777.015C835.191 790.645 832.035 808.153 828.777 821.452C827.419 826.997 825.148 832.847 824.554 838.497C824.411 838.707 824.265 838.915 824.124 839.127C821.01 843.818 818.807 850.617 815.783 855.773C805.458 873.381 787.338 893.208 766.55 897.748C755.128 900.243 730.451 898.977 717.505 898.973L627.594 899.124L375.807 898.96L304.403 898.956C290.76 899.019 276.678 899.793 263.089 898.775C252.32 897.968 243.017 895.031 233.978 889.123C222.175 881.409 210.727 869.119 204.488 856.365C202.626 852.559 201.274 846.877 198.539 843.748C194.145 829.452 188.668 809.374 189.554 794.327C191.625 788.84 189.019 781.554 190.213 775.84C190.598 774 190.663 770.286 191.966 768.986C192.112 772.276 191.339 775.439 191.09 778.706C190.833 782.083 191.006 785.565 191.086 788.95C192.018 785.736 191.096 781.746 191.95 778.304C191.938 774.344 192.755 770.054 194.78 766.633C199.645 758.417 221.145 747.082 222.822 740.227C224.043 738.329 225.705 737.926 226.397 735.479L225.751 733.518L252.826 734.045C251.355 735.139 249.756 736.15 248.734 737.701C248.669 737.883 248.612 738.069 248.54 738.249C247.959 739.688 247.012 740.829 245.877 741.864C246.707 740.46 248.423 739.257 250.044 738.93C250.305 738.878 250.569 738.844 250.832 738.8C245.549 743.868 240.064 748.713 235.21 754.208C222.337 768.78 214.776 787.054 214.367 806.556C213.961 825.905 218.392 845.53 232.153 859.871C239.582 867.612 248.694 873.373 259.108 876.057L259.264 840.928C259.271 834.2 257.918 822.853 259.853 816.601L260.407 817.459C260.36 817.758 260.309 818.056 260.265 818.355C259.237 825.339 260.059 833.525 260.031 840.643C259.992 850.93 259.326 861.637 259.888 871.878C259.986 873.664 260.188 875.168 261.06 876.739L260.999 876.546L262.031 876.36L261.68 876.999C261.758 876.792 261.843 876.588 261.916 876.379C262.654 874.265 261.846 870.101 261.852 867.701C261.865 862.331 261.388 820.611 262.352 818.145L262.651 818.868C262.604 822.924 262.607 826.921 262.916 830.967L388.372 830.977C388.335 827.217 388.3 823.496 388.599 819.745C388.835 814.541 389.509 809.681 390.953 804.668L388.751 804.07C389.321 804.133 389.978 804.39 390.453 804.043L391.306 804.07C398.391 804.243 405.491 803.89 412.62 804.148C406.676 804.186 400.185 803.699 394.309 804.522C392.918 808.541 392.157 812.98 392.426 817.243C392.753 821.827 392.647 826.425 392.612 831.017Q512.844 831.646 633.076 830.972L633.052 860.119C633.054 865.383 632.675 871.045 633.334 876.257C634.623 870.994 633.713 863.553 633.699 858.039C633.657 842.07 632.875 825.747 633.903 809.824L634.121 810.286C634.718 809.696 634.898 809.462 635.096 808.61C635.147 808.387 635.177 808.16 635.218 807.934L635.889 808.05C636.011 806.516 635.806 806.207 636.968 805.123C641.297 804.364 652.931 805.116 658.171 805.109L716.815 805.009L745.615 805.028C749.268 805.021 753.069 804.574 756.701 804.815C757.744 804.885 758.736 805.179 759.551 805.868C761.781 807.754 761.602 811.89 761.95 814.571C761.991 813.771 762.003 812.947 762.103 812.154C762.328 810.374 763.135 810.14 764.471 809.039C764.3 807.266 763.868 805.49 763.529 803.741C756.601 796.281 750.25 788.313 743.369 780.816Q720.724 756.307 696.556 733.297C687.603 724.706 678.578 715.824 668.7 708.296C670.934 707.631 673.132 707.083 675.145 705.874C674.632 704.599 673.714 704.613 673.185 703.367C679.84 699.774 685.743 698.49 693.261 698.315C710.731 663.771 718.537 630.328 725.154 592.43C725.25 592.685 725.356 592.937 725.442 593.195C726.685 596.937 723.482 601.441 724.363 605.337C725.049 600.991 726.081 596.691 726.655 592.334L727.184 593.319C724.063 616.141 715.38 653.72 706.272 674.41Z"/>
	<path fill="#ECAC00" d="M706.272 674.41L707.522 674.022C722.673 656.934 738.869 627.186 746.525 605.806C750.676 594.215 753.611 581.784 755.622 569.652C756.528 571.014 756.72 571.867 756.979 573.471C757.12 574.341 757.05 573.999 757.496 574.96C756.968 585.594 754.393 596.579 752.175 606.962C749.773 618.209 747.416 629.49 744.232 640.545C737.888 662.568 729.435 683.612 721.073 704.91C712.546 702.61 704.068 700.282 695.299 699.084C697.788 693.175 702.647 678.728 706.272 674.41Z"/>
	<path fill="#003234" d="M388.599 819.745C389.878 838.69 388.952 858.226 388.909 877.236L306.972 877.271C292.312 877.293 277.244 878.045 262.63 877.1L262.916 830.967L388.372 830.977C388.335 827.217 388.3 823.496 388.599 819.745Z"/>
	<path fill="#004C51" d="M675.145 705.874C684.566 701.62 693.839 700.246 703.979 703.318C710.556 704.13 717.204 706.508 723.369 708.854Q725.693 709.726 727.986 710.677Q730.279 711.629 732.538 712.659Q734.796 713.69 737.018 714.798Q739.24 715.905 741.422 717.089Q743.604 718.273 745.743 719.532Q747.883 720.791 749.978 722.123Q752.073 723.455 754.121 724.858Q756.168 726.262 758.166 727.735Q760.164 729.209 762.11 730.75Q764.056 732.292 765.947 733.9Q767.839 735.508 769.673 737.18Q771.508 738.853 773.283 740.588Q775.059 742.323 776.774 744.118Q778.488 745.913 780.14 747.767Q781.791 749.62 783.378 751.529Q784.964 753.439 786.484 755.402C801.443 774.68 809.497 798.091 806.239 822.616C803.919 840.087 795.914 856.396 781.629 867.14C776.68 870.863 771.348 873.306 765.602 875.519C765.558 860.364 765.69 845.187 765.463 830.035Q765.308 819.521 764.471 809.039C764.3 807.266 763.868 805.49 763.529 803.741C756.601 796.281 750.25 788.313 743.369 780.816Q720.724 756.307 696.556 733.297C687.603 724.706 678.578 715.824 668.7 708.296C670.934 707.631 673.132 707.083 675.145 705.874Z"/>
	<path fill="#135D54" d="M684.947 704.346C688.071 704.118 691.23 704.333 694.358 704.434C705.218 706.525 716.484 709.536 726.626 714.011C746.579 722.815 769.772 740.105 782.002 758.108C790.897 771.202 797.408 787.92 794.191 803.917C792.784 810.916 789.474 816.73 784.577 821.861C784.07 815.934 783.177 810.089 781.51 804.369C766.694 753.538 728.737 728.426 684.947 704.346Z"/>
	<path fill="#003234" d="M635.889 808.05C636.011 806.516 635.806 806.207 636.968 805.123C641.297 804.364 652.931 805.116 658.171 805.109L716.815 805.009L745.615 805.028C749.268 805.021 753.069 804.574 756.701 804.815C757.744 804.885 758.736 805.179 759.551 805.868C761.781 807.754 761.602 811.89 761.95 814.571C761.999 817.068 762.238 819.762 762.073 822.243C762.699 828.752 762.418 835.491 762.438 842.033L762.486 877.012C720.477 877.036 678.36 877.737 636.363 877.124C636.29 860.495 636.416 843.845 636.157 827.219Q636.137 817.633 635.889 808.05Z"/>
	<path fill="#135D54" d="M635.889 808.05C636.011 806.516 635.806 806.207 636.968 805.123C641.297 804.364 652.931 805.116 658.171 805.109L716.815 805.009L745.615 805.028C749.268 805.021 753.069 804.574 756.701 804.815C757.744 804.885 758.736 805.179 759.551 805.868C761.781 807.754 761.602 811.89 761.95 814.571C761.999 817.068 762.238 819.762 762.073 822.243C761.888 825.095 761.818 827.899 761.863 830.757C734.946 831.259 707.978 831.013 681.054 831.063L653.052 831.102C647.755 831.105 642.349 831.359 637.075 830.877C636.148 829.763 636.445 828.546 636.157 827.219Q636.137 817.633 635.889 808.05Z"/>
	<path fill="#003234" d="M392.063 877.332L392.027 839.584C392.027 832.194 391.696 824.593 392.426 817.243C392.753 821.827 392.647 826.425 392.612 831.017Q512.844 831.646 633.076 830.972L633.052 860.119C633.054 865.383 632.675 871.045 633.334 876.257C632.318 877.11 631.823 877.074 630.516 877.097C602.029 877.602 573.405 876.981 544.903 876.945L392.063 877.332Z"/>
	<path fill="#F9B900" d="M759.356 724.147C760.662 724.234 762.148 724.505 763.425 724.228C774.756 724.39 786.172 724.798 797.489 724.154C798.215 724.113 797.946 724.109 798.72 724.382C798.337 729.605 798.424 734.846 798.434 740.079C810.445 746.437 828.851 756.876 833.044 770.668C833.68 772.76 833.835 774.848 833.959 777.015C835.191 790.645 832.035 808.153 828.777 821.452C827.419 826.997 825.148 832.847 824.554 838.497C824.411 838.707 824.265 838.915 824.124 839.127C821.01 843.818 818.807 850.617 815.783 855.773C805.458 873.381 787.338 893.208 766.55 897.748C755.128 900.243 730.451 898.977 717.505 898.973L627.594 899.124L375.807 898.96L304.403 898.956C290.76 899.019 276.678 899.793 263.089 898.775C252.32 897.968 243.017 895.031 233.978 889.123C222.175 881.409 210.727 869.119 204.488 856.365C202.626 852.559 201.274 846.877 198.539 843.748C194.145 829.452 188.668 809.374 189.554 794.327C191.625 788.84 189.019 781.554 190.213 775.84C190.598 774 190.663 770.286 191.966 768.986C192.112 772.276 191.339 775.439 191.09 778.706C190.833 782.083 191.006 785.565 191.086 788.95C192.018 785.736 191.096 781.746 191.95 778.304C191.938 774.344 192.755 770.054 194.78 766.633C199.645 758.417 221.145 747.082 222.822 740.227C224.043 738.329 225.705 737.926 226.397 735.479L225.751 733.518L252.826 734.045C251.355 735.139 249.756 736.15 248.734 737.701C248.373 737.937 248.015 738.18 247.675 738.447C227.798 754.015 214.087 775.056 211.746 800.521C209.816 821.525 213.48 843.065 227.436 859.538C237.123 870.972 249.893 879.145 265.101 880.213C276.6 881.021 288.615 880.288 300.165 880.21L363.303 880.018Q467.658 880.53 572.011 879.976L701.688 879.916Q721.414 879.884 741.138 879.589C748.293 879.534 755.947 880.054 763.027 879.182C771.732 878.11 781.183 872.468 787.704 866.797C801.838 854.507 808.818 834.975 809.961 816.67C811.039 799.415 806.749 780.219 797.732 765.391C794.421 759.946 790.249 754.935 786.173 750.046C782.92 746.144 779.698 742.139 776.053 738.594C771.249 733.923 763.9 729.589 759.855 724.761C759.686 724.559 759.522 724.352 759.356 724.147Z"/>
	<path d="M763.425 724.228C774.756 724.39 786.172 724.798 797.489 724.154C798.215 724.113 797.946 724.109 798.72 724.382C798.337 729.605 798.424 734.846 798.434 740.079C810.445 746.437 828.851 756.876 833.044 770.668C833.68 772.76 833.835 774.848 833.959 777.015C833.467 776.211 833.566 776.497 833.327 775.719C832.271 772.272 831.215 768.439 829.229 765.4C817.746 747.828 782.776 735.194 764.299 724.731L763.425 724.228Z"/>
	<path fill="#FFC300" d="M226.397 735.479C227.698 740.307 227.13 743.117 224.621 747.482C221.38 753.121 216.619 758.234 212.585 763.36C202.272 776.467 196.336 790.634 193.352 806.981C192.985 801.243 192.496 795.489 192.265 789.744C192.112 785.956 192.288 782.072 191.95 778.304C191.938 774.344 192.755 770.054 194.78 766.633C199.645 758.417 221.145 747.082 222.822 740.227C224.043 738.329 225.705 737.926 226.397 735.479Z"/>
	<path d="M383.518 168.648L383.456 113.831C383.441 102.982 382.066 89.1877 384.61 78.73C386.157 72.3721 389.606 66.8245 394.093 62.1108C401.443 54.3894 410.236 51.1337 420.773 50.9605C462.309 50.2774 503.997 51.0981 545.551 51.0556L585.237 51.0126C592.756 51.0045 601.097 50.3452 608.51 51.5816Q609.981 51.8419 611.429 52.2102Q612.877 52.5784 614.293 53.0525Q615.71 53.5267 617.088 54.1041Q618.465 54.6816 619.797 55.3591Q621.128 56.0367 622.406 56.8108Q623.683 57.5848 624.9 58.4511Q626.117 59.3174 627.267 60.2712Q628.417 61.2249 629.493 62.261Q630.411 63.1507 631.265 64.1021Q632.119 65.0535 632.904 66.0619Q633.69 67.0704 634.403 68.131Q635.117 69.1917 635.755 70.2993Q636.393 71.407 636.953 72.5564Q637.512 73.7058 637.99 74.8913Q638.469 76.0768 638.863 77.2926Q639.258 78.5085 639.567 79.7489C641.831 88.9995 640.625 103.532 640.626 113.242L640.675 170.926C675.227 173.842 718.605 179.953 743.836 205.798C751.735 213.889 758.854 224.118 762.726 234.798C771.699 259.548 774.406 288.162 777.929 314.19C793.319 427.892 797.238 544.747 796.332 659.394C800.769 663.928 802.698 668.176 802.572 674.655C802.503 678.161 801.776 681.688 800.628 684.993C800.837 693.367 803.114 717.9 798.72 724.382C797.946 724.109 798.215 724.113 797.489 724.154C786.172 724.798 774.756 724.39 763.425 724.228C762.148 724.505 760.662 724.234 759.356 724.147C758.395 722.041 750.906 718.333 748.727 717.271L747.156 716.271Q735.404 709.663 722.734 705.053C738.231 675.653 757.113 607.388 759.131 574.392L757.496 574.96C757.05 573.999 757.12 574.341 756.979 573.471C756.72 571.867 756.528 571.014 755.622 569.652C753.611 581.784 750.676 594.215 746.525 605.806C738.869 627.186 722.673 656.934 707.522 674.022L706.272 674.41C715.38 653.72 724.063 616.141 727.184 593.319L726.655 592.334C726.081 596.691 725.049 600.991 724.363 605.337C723.482 601.441 726.685 596.937 725.442 593.195C725.356 592.937 725.25 592.685 725.154 592.43C725.461 584.183 727.665 574.602 728.76 566.255C731.115 548.323 732.974 530.148 733.395 512.057Q733.739 488.998 732.18 465.99Q730.62 442.981 727.168 420.18C723.548 396.906 718.452 373.748 715.275 350.428L717.094 347.733C716.634 344.473 716.48 341.151 716.241 337.868C715.42 326.804 716.677 315.18 715.289 304.224C715.125 302.929 715.298 302.352 714.252 301.539L711.859 301.963C710.428 296.944 711.041 284.006 709.824 277.125L709.33 277.738C705.243 278.542 700.42 278.087 696.242 278.093Q682.704 278.128 669.166 278.005C669.156 276.333 669.406 274.109 668.654 272.616Q668.523 266.006 668.285 259.398C666.924 254.087 667.665 245.181 667.6 239.531C680.094 239.52 694.317 237.879 706.019 242.839C714.25 248.242 721.143 253.859 726.097 262.528C727.303 264.638 728.127 266.972 729.326 269.055L730.133 268.97C730.146 269.123 730.152 269.276 730.173 269.427C730.334 270.562 730.859 271.572 731.091 272.694C731.749 275.871 731.689 279.208 731.759 282.436C732.551 279.775 732.084 273.953 731.482 271.185L732.043 270.649C730.387 262.544 725.363 255.017 719.564 249.254C715.131 244.848 708.964 240.259 702.817 238.684C694.824 236.636 664.46 237.711 654.021 237.778L580.907 237.91C572.252 240.954 554.333 239.53 544.536 239.526C536.682 239.522 461.067 238.9 459.622 239.95C455.129 240.074 441.755 239.11 438.353 240.414L438.273 240.011C438.767 239.708 439.255 239.395 439.741 239.078L439.25 237.983C440.695 238.045 441.858 238.102 443.259 237.638C444.373 229.525 443.866 216.518 443.512 208.111C434.02 208.384 411.348 209.635 403.134 206.121C395.304 202.77 387.749 195.491 384.676 187.5C385.373 184.98 383.834 181.228 383.151 178.693C383.217 176.043 383.256 173.391 383.439 170.746C346.643 172.799 303.838 183.993 278.457 212.337Q276.585 214.395 274.889 216.602Q273.194 218.808 271.688 221.147Q270.181 223.486 268.873 225.942Q267.566 228.398 266.466 230.954C263.159 238.811 261.626 247.59 259.95 255.919Q255.519 279.011 252.027 302.264Q246.434 338.921 242.241 375.764Q238.049 412.607 235.263 449.583Q232.478 486.559 231.103 523.614Q229.729 560.669 229.767 597.75C229.627 618.016 230.201 638.227 230.377 658.482L228.377 660.461Q227.739 637.616 227.621 614.762Q227.502 591.909 227.904 569.059Q228.305 546.208 229.226 523.373Q230.147 500.538 231.587 477.729Q233.027 454.921 234.985 432.151Q236.943 409.381 239.419 386.662Q241.895 363.943 244.886 341.285Q247.878 318.628 251.384 296.045C254.425 277.666 258.154 248.435 264.486 231.604C267.414 223.821 272.001 216.654 277.443 210.396C303.846 180.035 345.254 171.313 383.518 168.648Z"/>
	<path d="M569.399 208.027C573.049 207.902 576.866 207.55 580.49 207.995L580.445 237.403C579.294 237.242 579.79 237.201 578.775 237.435C575.568 238.172 573.067 238.176 569.847 237.649C563.117 238.978 544.656 237.884 536.655 237.874L454.481 237.931L454.496 207.697C460.022 208.41 465.839 208.113 471.409 208.104L498.269 208.037C521.954 207.978 545.729 208.538 569.399 208.027Z"/>
	<path d="M569.399 208.027C573.049 207.902 576.866 207.55 580.49 207.995L580.445 237.403C579.294 237.242 579.79 237.201 578.775 237.435C575.568 238.172 573.067 238.176 569.847 237.649C569.232 227.885 569.5 217.821 569.399 208.027Z"/>
	<path fill="#ECAC00" d="M574.046 185.471C590.365 185.554 606.039 189.636 619.616 178.022C627.04 171.671 634.052 160.515 635.943 150.905C636.955 145.76 636.511 140.151 636.496 134.927C636.461 122.629 635.815 109.671 636.867 97.4557L636.925 96.8395C637.432 112.959 636.886 129.129 637.037 145.258C637.134 155.556 639.197 173.815 637.008 183.284C635.963 187.805 632.949 191.76 629.804 195.073C621.844 203.458 613.291 206.236 601.944 206.466C583.127 206.847 564.237 206.457 545.413 206.438Q498.27 206.762 451.132 206.027C439.64 205.86 417.762 207.5 407.371 205.183C403.074 204.224 398.291 200.591 395.151 197.609C389.188 191.945 385.508 185.085 385.315 176.722C385.22 172.629 385.448 167.591 386.901 163.752L388.23 165.953C396.722 165.674 407.813 164.096 415.943 166.408C418.353 172.858 422.087 177.319 428.472 180.118C430.481 180.999 432.737 181.228 434.669 182.065C451.372 186.805 475.783 183.977 493.548 184.084C510.697 184.187 527.833 185.076 544.988 185.094C553.985 185.104 565.362 183.93 574.046 185.471Z"/>
	<path fill="#F9B900" d="M388.23 165.953C396.722 165.674 407.813 164.096 415.943 166.408C418.353 172.858 422.087 177.319 428.472 180.118C430.481 180.999 432.737 181.228 434.669 182.065C451.372 186.805 475.783 183.977 493.548 184.084C510.697 184.187 527.833 185.076 544.988 185.094C553.985 185.104 565.362 183.93 574.046 185.471C564.044 186.682 550.051 186.016 539.624 186.045C510.917 186.122 482.192 185.197 453.485 185.713C441.832 185.923 418.503 190.267 408.694 187.086C399.295 184.038 392.401 174.405 388.23 165.953Z"/>
	<path fill="#FFC300" d="M386.901 163.752L386.529 91.4108C386.557 80.614 388.616 70.8932 396.727 63.1255C401.537 58.5185 408.041 55.2365 414.609 54.1284C421.905 52.8975 429.857 53.4726 437.246 53.4814L473.511 53.5511L598.21 53.5924C609.5 53.6769 619.713 56.5905 627.763 64.8952C636.939 74.3611 637.116 84.3924 636.925 96.8395L636.867 97.4557C635.815 109.671 636.461 122.629 636.496 134.927C636.511 140.151 636.955 145.76 635.943 150.905C634.052 160.515 627.04 171.671 619.616 178.022C606.039 189.636 590.365 185.554 574.046 185.471C565.362 183.93 553.985 185.104 544.988 185.094C527.833 185.076 510.697 184.187 493.548 184.084C475.783 183.977 451.372 186.805 434.669 182.065C456.474 181.923 478.447 182.226 500.222 181.481C520.491 181.912 540.805 181.527 561.082 181.685C569.383 181.75 585.957 183.014 593.127 181.59C594.529 181.566 595.992 181.151 597.302 180.67C603.62 178.351 607.443 173.246 610.277 167.424C613.282 157.53 611.976 145.265 611.956 134.982L611.97 104.003C612.08 99.2829 611.826 94.9846 610.024 90.5302C607.346 83.9103 602.263 79.1575 595.687 76.5337C593.042 75.4787 590.479 74.7648 587.631 74.5405C578.724 73.8387 569.64 74.084 560.711 74.0788L519.34 74.0832L466.56 74.2106C457.573 74.2637 448.454 74.0304 439.483 74.5409C436.015 74.7383 432.416 74.9978 429.213 76.4402C422.764 79.3448 418.526 84.6482 416.04 91.1343C414.824 96.9308 414.811 161.122 415.943 166.408C407.813 164.096 396.722 165.674 388.23 165.953L386.901 163.752Z"/>
	<path fill="#00A298" d="M416.04 91.1343C418.526 84.6482 422.764 79.3448 429.213 76.4402C432.416 74.9978 436.015 74.7383 439.483 74.5409C448.454 74.0304 457.573 74.2637 466.56 74.2106L519.34 74.0832L560.711 74.0788C569.64 74.084 578.724 73.8387 587.631 74.5405C590.479 74.7648 593.042 75.4787 595.687 76.5337C602.263 79.1575 607.346 83.9103 610.024 90.5302C611.826 94.9846 612.08 99.2829 611.97 104.003L611.956 134.982C611.976 145.265 613.282 157.53 610.277 167.424C607.443 173.246 603.62 178.351 597.302 180.67C595.992 181.151 594.529 181.566 593.127 181.59C585.957 183.014 569.383 181.75 561.082 181.685C540.805 181.527 520.491 181.912 500.222 181.481C478.447 182.226 456.474 181.923 434.669 182.065C432.737 181.228 430.481 180.999 428.472 180.118C422.087 177.319 418.353 172.858 415.943 166.408C414.811 161.122 414.824 96.9308 416.04 91.1343Z"/>
	<path fill="#FFD642" d="M418.198 92.0224Q418.731 90.1975 419.573 88.4934Q420.415 86.7893 421.542 85.2581C424.615 81.0872 428.945 78.0979 434.095 77.2808C445.309 75.5015 457.363 76.1597 468.712 76.1236L525.198 76.0536L564.651 76.0346C572.504 76.0377 580.901 75.5178 588.677 76.6198C593.367 77.2845 597.38 79.3262 601.14 82.0891C600.567 92.6244 597.301 100.458 589.335 107.546C582.237 113.861 572.85 117.804 563.617 119.719C549.147 122.72 532.564 121.396 517.837 121.218Q490.99 120.883 464.142 121.133C455.567 121.27 445.083 120.342 437.038 123.859C426.221 128.589 418.725 143.704 418.122 154.987C417.968 157.88 418.196 160.848 417.905 163.717C416.778 158.193 416.961 96.5478 418.198 92.0224Z"/>
	<path fill="#F9B900" d="M601.14 82.0891C606.039 86.5247 608.963 91.781 609.598 98.4272L609.643 138.087C609.65 146.687 610.761 157.02 608.63 165.331C606.427 170.995 603.246 175.404 597.579 178.037C594.779 179.338 591.948 179.836 588.909 180.121C580.082 179.159 566.586 179.951 557.223 179.912C543.23 179.853 527.682 178.892 513.856 179.939C507.018 179.5 499.99 179.818 493.133 179.844L455.968 179.983C448.73 180.008 440.573 180.724 433.438 179.524C430.299 178.997 427.664 178.02 425.125 176.063C421.202 173.039 418.492 168.654 417.905 163.717C418.196 160.848 417.968 157.88 418.122 154.987C418.725 143.704 426.221 128.589 437.038 123.859C445.083 120.342 455.567 121.27 464.142 121.133Q490.99 120.883 517.837 121.218C532.564 121.396 549.147 122.72 563.617 119.719C572.85 117.804 582.237 113.861 589.335 107.546C597.301 100.458 600.567 92.6244 601.14 82.0891Z"/>
	<path fill="#FFD642" d="M640.708 172.331C678.759 176.463 722.866 181.812 748.352 213.8Q750.635 216.638 752.659 219.666Q754.683 222.695 756.432 225.889Q758.182 229.084 759.643 232.42Q761.104 235.757 762.266 239.209C770.177 263.483 773.596 293.921 776.954 319.455Q783.979 375.498 788.139 431.827Q792.299 488.155 793.584 544.622C794.721 581.508 796.441 620.813 794.148 657.517L796.332 659.394C800.769 663.928 802.698 668.176 802.572 674.655C802.503 678.161 801.776 681.688 800.628 684.993C800.837 693.367 803.114 717.9 798.72 724.382C797.946 724.109 798.215 724.113 797.489 724.154C786.172 724.798 774.756 724.39 763.425 724.228C762.148 724.505 760.662 724.234 759.356 724.147C758.395 722.041 750.906 718.333 748.727 717.271L747.156 716.271Q735.404 709.663 722.734 705.053C738.231 675.653 757.113 607.388 759.131 574.392L757.496 574.96C757.05 573.999 757.12 574.341 756.979 573.471C756.72 571.867 756.528 571.014 755.622 569.652C753.611 581.784 750.676 594.215 746.525 605.806C738.869 627.186 722.673 656.934 707.522 674.022L706.272 674.41C715.38 653.72 724.063 616.141 727.184 593.319L726.655 592.334C726.081 596.691 725.049 600.991 724.363 605.337C723.482 601.441 726.685 596.937 725.442 593.195C725.356 592.937 725.25 592.685 725.154 592.43C725.461 584.183 727.665 574.602 728.76 566.255C731.115 548.323 732.974 530.148 733.395 512.057Q733.739 488.998 732.18 465.99Q730.62 442.981 727.168 420.18C723.548 396.906 718.452 373.748 715.275 350.428L717.094 347.733C716.634 344.473 716.48 341.151 716.241 337.868C715.42 326.804 716.677 315.18 715.289 304.224C715.125 302.929 715.298 302.352 714.252 301.539L711.859 301.963C710.428 296.944 711.041 284.006 709.824 277.125L709.33 277.738C705.243 278.542 700.42 278.087 696.242 278.093Q682.704 278.128 669.166 278.005C669.156 276.333 669.406 274.109 668.654 272.616Q668.523 266.006 668.285 259.398C666.924 254.087 667.665 245.181 667.6 239.531C680.094 239.52 694.317 237.879 706.019 242.839C714.25 248.242 721.143 253.859 726.097 262.528C727.303 264.638 728.127 266.972 729.326 269.055L730.133 268.97C730.146 269.123 730.152 269.276 730.173 269.427C730.334 270.562 730.859 271.572 731.091 272.694C731.749 275.871 731.689 279.208 731.759 282.436C732.551 279.775 732.084 273.953 731.482 271.185L732.043 270.649C730.387 262.544 725.363 255.017 719.564 249.254C715.131 244.848 708.964 240.259 702.817 238.684C694.824 236.636 664.46 237.711 654.021 237.778L580.907 237.91L580.445 237.403L580.49 207.995C590.681 207.95 606.086 209.7 615.517 206.991C625.418 204.147 633.599 197.25 638.62 188.333L639.431 186.273C640.213 181.581 640.55 177.076 640.708 172.331Z"/>
	<path d="M639.431 186.273C668.569 187.243 710.8 194.689 731.3 216.569C737.507 223.193 741.739 230.679 744.964 239.139C756.18 268.566 761.388 311.151 765.457 342.803Q770.326 381.693 773.885 420.724Q777.444 459.755 779.69 498.884Q781.936 538.013 782.866 577.195Q783.796 616.378 783.409 655.569L780.002 655.73C779.77 605.224 779.743 555.168 776.775 504.703Q775.943 490.4 774.947 476.107C774.605 471.196 774.58 465.962 773.675 461.129Q769.766 393.139 759.908 325.755C756.538 302.085 753.417 277.865 746.904 254.817C744.02 244.612 740.515 234.528 734.548 225.673C719.423 203.233 691.12 195.929 665.798 192.173C656.763 190.833 647.581 190.091 638.62 188.333L639.431 186.273Z"/>
	<defs>
		<linearGradient id="gradient_3" gradientUnits="userSpaceOnUse" x1="792.96497" y1="597.05219" x2="730.23444" y2="581.25702">
			<stop offset="0" stop-color="#7B7B7B"/>
			<stop offset="1" stop-color="#8B8B8B"/>
		</linearGradient>
	</defs>
	<path fill="url(#gradient_3)" d="M773.675 461.129C774.58 465.962 774.605 471.196 774.947 476.107Q775.943 490.4 776.775 504.703C779.743 555.168 779.77 605.224 780.002 655.73L783.409 655.569C787.375 655.521 790.473 655.812 794.148 657.517L796.332 659.394C800.769 663.928 802.698 668.176 802.572 674.655C802.503 678.161 801.776 681.688 800.628 684.993C800.837 693.367 803.114 717.9 798.72 724.382C797.946 724.109 798.215 724.113 797.489 724.154C786.172 724.798 774.756 724.39 763.425 724.228C762.148 724.505 760.662 724.234 759.356 724.147C758.395 722.041 750.906 718.333 748.727 717.271L747.156 716.271Q735.404 709.663 722.734 705.053C738.231 675.653 757.113 607.388 759.131 574.392C760.262 571.695 760.011 566.615 760.19 563.621C762.144 530.988 760.514 497.828 757.568 465.306C758.275 466.204 757.817 465.868 758.985 466.252C762.401 464.757 771.805 463.104 773.675 461.129Z"/>
	<path d="M783.409 655.569C787.375 655.521 790.473 655.812 794.148 657.517L796.332 659.394C800.769 663.928 802.698 668.176 802.572 674.655C802.503 678.161 801.776 681.688 800.628 684.993L747.659 684.611L746.865 684.486C745.668 681.615 744.67 678.735 744.399 675.614C743.964 670.61 745.303 664.712 748.707 660.89C755.615 653.133 770.065 656.657 779.446 655.787C779.631 655.77 779.816 655.749 780.002 655.73L783.409 655.569Z"/>
	<path fill="#313131" d="M747.659 684.611L800.628 684.993C800.837 693.367 803.114 717.9 798.72 724.382C797.946 724.109 798.215 724.113 797.489 724.154C786.172 724.798 774.756 724.39 763.425 724.228C762.148 724.505 760.662 724.234 759.356 724.147C758.395 722.041 750.906 718.333 748.727 717.271L747.156 716.271C746.756 705.706 746.829 695.057 746.865 684.486L747.659 684.611Z"/>
	<path d="M746.865 684.486L747.659 684.611C749.597 692.442 748.923 708.759 748.727 717.271L747.156 716.271C746.756 705.706 746.829 695.057 746.865 684.486Z"/>
	<path d="M638.62 188.333C647.581 190.091 656.763 190.833 665.798 192.173C691.12 195.929 719.423 203.233 734.548 225.673C740.515 234.528 744.02 244.612 746.904 254.817C753.417 277.865 756.538 302.085 759.908 325.755Q769.767 393.139 773.675 461.129C771.805 463.104 762.401 464.757 758.985 466.252C757.817 465.868 758.275 466.204 757.568 465.306C755.766 446.647 752.566 428.124 749.309 409.674C741.685 370.906 731.639 334.655 732.101 294.543C732.18 287.725 734.069 276.803 732.043 270.649C730.387 262.544 725.363 255.017 719.564 249.254C715.131 244.848 708.964 240.259 702.817 238.684C694.824 236.636 664.46 237.711 654.021 237.778L580.907 237.91L580.445 237.403L580.49 207.995C590.681 207.95 606.086 209.7 615.517 206.991C625.418 204.147 633.599 197.25 638.62 188.333Z"/>
	<path fill="#F9B900" d="M667.6 239.531C680.094 239.52 694.317 237.879 706.019 242.839C714.25 248.242 721.143 253.859 726.097 262.528C727.303 264.638 728.127 266.972 729.326 269.055L730.133 268.97C730.146 269.123 730.152 269.276 730.173 269.427C730.334 270.562 730.859 271.572 731.091 272.694C731.749 275.871 731.689 279.208 731.759 282.436C732.551 279.775 732.084 273.953 731.482 271.185L732.043 270.649C734.069 276.803 732.18 287.725 732.101 294.543C731.639 334.655 741.685 370.906 749.309 409.674C752.566 428.124 755.766 446.647 757.568 465.306C760.514 497.828 762.144 530.988 760.19 563.621C760.011 566.615 760.262 571.695 759.131 574.392L757.496 574.96C757.05 573.999 757.12 574.341 756.979 573.471C756.72 571.867 756.528 571.014 755.622 569.652C753.611 581.784 750.676 594.215 746.525 605.806C738.869 627.186 722.673 656.934 707.522 674.022L706.272 674.41C715.38 653.72 724.063 616.141 727.184 593.319L726.655 592.334C726.081 596.691 725.049 600.991 724.363 605.337C723.482 601.441 726.685 596.937 725.442 593.195C725.356 592.937 725.25 592.685 725.154 592.43C725.461 584.183 727.665 574.602 728.76 566.255C731.115 548.323 732.974 530.148 733.395 512.057Q733.739 488.998 732.18 465.99Q730.62 442.981 727.168 420.18C723.548 396.906 718.452 373.748 715.275 350.428L717.094 347.733C716.634 344.473 716.48 341.151 716.241 337.868C715.42 326.804 716.677 315.18 715.289 304.224C715.125 302.929 715.298 302.352 714.252 301.539L711.859 301.963C710.428 296.944 711.041 284.006 709.824 277.125L709.33 277.738C705.243 278.542 700.42 278.087 696.242 278.093Q682.704 278.128 669.166 278.005C669.156 276.333 669.406 274.109 668.654 272.616Q668.523 266.006 668.285 259.398C666.924 254.087 667.665 245.181 667.6 239.531Z"/>
	<path d="M729.326 269.055L730.133 268.97C730.146 269.123 730.152 269.276 730.173 269.427C730.334 270.562 730.859 271.572 731.091 272.694C731.749 275.871 731.689 279.208 731.759 282.436C732.551 279.775 732.084 273.953 731.482 271.185L732.043 270.649C734.069 276.803 732.18 287.725 732.101 294.543C731.639 334.655 741.685 370.906 749.309 409.674C748.771 410.934 748.935 411.26 747.659 411.898C744.455 394.397 739.94 377.256 736.526 359.826Q733.384 343.316 731.667 326.597Q730.303 315.198 730.261 303.717C730.293 292.517 732.226 279.868 729.326 269.055Z"/>
	<defs>
		<linearGradient id="gradient_4" gradientUnits="userSpaceOnUse" x1="758.78735" y1="491.32785" x2="750.0105" y2="492.06339">
			<stop offset="0" stop-color="black"/>
			<stop offset="1" stop-color="#090909"/>
		</linearGradient>
	</defs>
	<path fill="url(#gradient_4)" d="M749.309 409.674C752.566 428.124 755.766 446.647 757.568 465.306C760.514 497.828 762.144 530.988 760.19 563.621C760.011 566.615 760.262 571.695 759.131 574.392L757.496 574.96C757.05 573.999 757.12 574.341 756.979 573.471C756.72 571.867 756.528 571.014 755.622 569.652C758.414 558.549 758.349 545.297 758.445 533.874Q758.63 515.058 757.683 496.265Q756.736 477.472 754.66 458.77C752.783 443.07 749.797 427.556 747.659 411.898C748.935 411.26 748.771 410.934 749.309 409.674Z"/>
	<path d="M715.275 350.428L717.094 347.733C720.027 370.07 724.957 392.234 728.468 414.507C736.499 465.45 737.942 510.857 731.616 562.206C730.828 568.596 729.346 588.815 727.184 593.319L726.655 592.334C726.081 596.691 725.049 600.991 724.363 605.337C723.482 601.441 726.685 596.937 725.442 593.195C725.356 592.937 725.25 592.685 725.154 592.43C725.461 584.183 727.665 574.602 728.76 566.255C731.115 548.323 732.974 530.148 733.395 512.057Q733.739 488.998 732.18 465.99Q730.62 442.981 727.168 420.18C723.548 396.906 718.452 373.748 715.275 350.428Z"/>
	<path fill="#FFD642" d="M668.285 259.398L668.699 257.625C674.947 255.86 693.967 256.967 699.884 260.293C705.406 263.397 707.656 268.479 709.146 274.336Q709.504 275.726 709.824 277.125L709.33 277.738C705.243 278.542 700.42 278.087 696.242 278.093Q682.704 278.128 669.166 278.005C669.156 276.333 669.406 274.109 668.654 272.616Q668.523 266.006 668.285 259.398Z"/>
</svg>
